<svg xmlns="http://www.w3.org/2000/svg" width="760" height="332pt" viewBox="0 0 570.42 332">
    <g class="graph">
        <path fill="#fff" d="M0 332V0h570.42v332z"/>
        <g class="node" transform="translate(4 328)">
            <ellipse cx="394.17" cy="-306" fill="none" stroke="#000" rx="75.41" ry="18"/>
            <text x="394.17" y="-300.95" font-family="Times,serif" font-size="14" text-anchor="middle">:feature:shopping</text>
        </g>
        <g class="node" transform="translate(4 328)">
            <ellipse cx="457.17" cy="-90" fill="none" stroke="#000" rx="82.06" ry="18"/>
            <text x="457.17" y="-84.95" font-family="Times,serif" font-size="14" text-anchor="middle">:core:designsystem</text>
        </g>
        <g stroke="#000" class="edge">
            <path fill="none" d="M403.22 40.15c10.83 36.78 36.37 123.56 49.64 168.61"/>
            <path d="m456.2 207.73-.53 10.59-6.18-8.61z"/>
        </g>
        <g class="node" transform="translate(4 328)">
            <ellipse cx="65.17" cy="-18" fill="none" stroke="#000" rx="65.17" ry="18"/>
            <text x="65.17" y="-12.95" font-family="Times,serif" font-size="14" text-anchor="middle">:core:common</text>
        </g>
        <g stroke="#000" class="edge">
            <path fill="none" d="M325.06 26.9C244.51 35.52 118.18 62.75 56.17 148c-28.5 39.19-12.6 98.83.74 133.45"/>
            <path d="m60.01 279.78.52 10.58-7.01-7.95z"/>
        </g>
        <g class="node" transform="translate(4 328)">
            <ellipse cx="397.17" cy="-18" fill="none" stroke="#000" rx="55.45" ry="18"/>
            <text x="397.17" y="-12.95" font-family="Times,serif" font-size="14" text-anchor="middle">:core:model</text>
        </g>
        <g stroke="#000" class="edge">
            <path fill="none" d="M423.82 39.35c57 38.36 184.85 136.94 128.35 216.65-19.55 27.58-54.62 40.91-86.04 47.31"/>
            <path d="m467.15 306.69-10.46-1.66 9.21-5.23z"/>
        </g>
        <g class="node" transform="translate(4 328)">
            <ellipse cx="287.17" cy="-234" fill="none" stroke="#000" rx="47.26" ry="18"/>
            <text x="287.17" y="-228.95" font-family="Times,serif" font-size="14" text-anchor="middle">:core:data</text>
        </g>
        <g stroke="red" stroke-width="2" class="edge">
            <path fill="none" d="M373.08 39.41c-14.73 9.64-33.51 21.93-49.37 32.3"/>
            <path fill="red" d="m327.09 73.68-10.28 2.55 6.45-8.4z"/>
        </g>
        <g stroke="#000" class="edge">
            <path fill="none" d="M327.25 106.02c23.81 8.61 54.6 22.41 76.92 41.98 19.47 17.07 34.79 42.36 44.62 61.62"/>
            <path d="m451.9 208 1.25 10.52-7.54-7.44z"/>
        </g>
        <g stroke="#000" class="edge">
            <path fill="none" d="M246.12 99.97C190.11 107.15 99.31 122.46 78.17 148 47.38 185.2 54 245.37 61.59 280.66"/>
            <path d="m64.94 279.6-1.13 10.53-5.69-8.94z"/>
        </g>
        <g class="node" transform="translate(4 328)">
            <ellipse cx="254.17" cy="-90" fill="none" stroke="#000" rx="65.17" ry="18"/>
            <text x="254.17" y="-84.95" font-family="Times,serif" font-size="14" text-anchor="middle">:core:datastore</text>
        </g>
        <g stroke="#000" class="edge">
            <path fill="none" d="M281.23 112.07c-5.4 10.11-11.65 23.36-15.06 35.93-5.35 19.71-7.32 42.68-7.96 60.34"/>
            <path d="m261.71 208.19-3.73 9.92-3.26-10.08z"/>
        </g>
        <g class="node" transform="translate(4 328)">
            <ellipse cx="145.17" cy="-162" fill="none" stroke="#000" rx="62.1" ry="18"/>
            <text x="145.17" y="-156.95" font-family="Times,serif" font-size="14" text-anchor="middle">:core:network</text>
        </g>
        <g stroke="red" stroke-width="2" class="edge">
            <path fill="none" d="M263.12 108.83c-20.99 10.34-49.98 24.64-73.47 36.22"/>
            <path fill="red" d="m192.86 147.37-10.52 1.28 7.42-7.56z"/>
        </g>
        <g class="node" transform="translate(4 328)">
            <ellipse cx="331.17" cy="-162" fill="none" stroke="#000" rx="60.05" ry="18"/>
            <text x="331.17" y="-156.95" font-family="Times,serif" font-size="14" text-anchor="middle">:core:domain</text>
        </g>
        <g stroke="#000" class="edge">
            <path fill="none" d="M301.82 111.95c5.03 7.99 11.14 17.72 16.76 26.65"/>
            <path d="m321.45 136.6 2.36 10.33-8.28-6.6z"/>
        </g>
        <g stroke="#000" class="edge">
            <path fill="none" d="M220.38 253c-29.62 10.97-71.03 26.3-103.02 38.15"/>
            <path d="m118.91 294.31-10.59.19 8.16-6.75z"/>
        </g>
        <g stroke="#000" class="edge">
            <path fill="none" d="M289.2 254.19c21.23 10.39 49.55 24.26 72.4 35.44"/>
            <path d="m362.87 286.35 7.44 7.54-10.52-1.25z"/>
        </g>
        <g class="node" transform="translate(4 328)">
            <ellipse cx="236.17" cy="-18" fill="none" stroke="#000" rx="87.69" ry="18"/>
            <text x="236.17" y="-12.95" font-family="Times,serif" font-size="14" text-anchor="middle">:core:datastore-proto</text>
        </g>
        <g stroke="red" stroke-width="2" class="edge">
            <path fill="none" d="M253.72 256.3c-1.9 7.38-4.16 16.18-6.29 24.45"/>
            <path fill="red" d="m251.2 280.15-5.88 8.81-.9-10.55z"/>
        </g>
        <g stroke="#000" class="edge">
            <path fill="none" d="M136.89 183.8c-7.27 10.24-16.44 23.71-23.72 36.2-11.72 20.1-23.31 43.75-31.66 61.61"/>
            <path d="m84.77 282.92-7.37 7.61 1.01-10.54z"/>
        </g>
        <g stroke="#000" class="edge">
            <path fill="none" d="M151.2 184.49c3.3 20.24 11.76 53.14 32.97 71.51 52.81 45.73 85.24 19.03 153 36 3.74.94 7.59 1.92 11.47 2.92"/>
            <path d="m349.3 291.47 8.79 5.91-10.56.87z"/>
        </g>
        <g stroke="red" stroke-width="2" class="edge">
            <path fill="none" d="M173.9 182.88c14.67 9.42 33.49 21.51 49.62 31.87"/>
            <path fill="red" d="m224.09 210.95 6.52 8.35-10.31-2.46z"/>
        </g>
        <g stroke="#000" class="edge">
            <path fill="none" d="M362.82 182.36c17.44 9.69 40.22 22.35 59.47 33.04"/>
            <path d="m423.91 212.29 7.04 7.92-10.44-1.8z"/>
        </g>
        <g stroke="#000" class="edge">
            <path fill="none" d="M290.64 178.53c-30.94 8.98-72.54 23.02-106.47 41.47-32.94 17.92-66.37 45-88.63 64.59"/>
            <path d="m97.92 287.15-9.79 4.05 5.13-9.27z"/>
        </g>
        <g stroke="#000" class="edge">
            <path fill="none" d="M341.11 184.4c6.42 18.19 17.31 47.4 29.06 71.6 4.3 8.86 9.54 18.23 14.47 26.59"/>
            <path d="m387.48 280.51 2.17 10.38-8.16-6.76z"/>
        </g>
        <g stroke="#000" class="edge">
            <path fill="none" d="M316.92 183.59c-9.52 8.65-21.35 19.41-31.89 28.99"/>
            <path d="m287.43 215.13-9.76 4.14 5.05-9.32z"/>
        </g>
    </g>
</svg>
