<svg xmlns="http://www.w3.org/2000/svg" width="1885pt" height="332pt" viewBox="0 0 1885.42 332">
    <g class="graph">
        <path fill="#fff" d="M0 332V0h1885.42v332z"/>
        <g class="node" transform="translate(4 328)">
            <ellipse cx="1119.57" cy="-306" fill="none" stroke="#000" rx="52.38" ry="18"/>
            <text x="1119.57" y="-300.95" font-family="Times,serif" font-size="14" text-anchor="middle">:navigation</text>
        </g>
        <g class="node" transform="translate(4 328)">
            <ellipse cx="924.57" cy="-90" fill="none" stroke="#000" rx="39.07" ry="18"/>
            <text x="924.57" y="-84.95" font-family="Times,serif" font-size="14" text-anchor="middle">:core:ui</text>
        </g>
        <g stroke="#000" class="edge">
            <path fill="none" d="M1096.49 37.68C1061.14 58.1 999.44 98.25 962.57 148c-13.47 18.18-22.26 42.35-27.52 60.91"/>
            <path d="m938.47 209.67-5.93 8.78-.84-10.56z"/>
        </g>
        <g class="node" transform="translate(4 328)">
            <ellipse cx="983.57" cy="-18" fill="none" stroke="#000" rx="65.17" ry="18"/>
            <text x="983.57" y="-12.95" font-family="Times,serif" font-size="14" text-anchor="middle">:core:common</text>
        </g>
        <g stroke="#000" class="edge">
            <path fill="none" d="M1175.69 24.42c130.6 4.02 469.03 17.51 575.88 51.58 68.99 22 155.32 43.7 122 108-25.53 49.27-49.71 53.44-102 72-128.74 45.7-535.87 52.33-707.02 53.06"/>
            <path d="m1064.65 312.55-10.01-3.46 9.99-3.54z"/>
        </g>
        <g class="node" transform="translate(4 328)">
            <ellipse cx="1119.57" cy="-162" fill="none" stroke="#000" rx="72.34" ry="18"/>
            <text x="1119.57" y="-156.95" font-family="Times,serif" font-size="14" text-anchor="middle">:feature:home:ui</text>
        </g>
        <g stroke="#000" class="edge">
            <path fill="none" d="M1123.57 40.41v96.17"/>
            <path d="m1127.07 136.38-3.5 10-3.5-10z"/>
        </g>
        <g class="node" transform="translate(4 328)">
            <ellipse cx="1421.57" cy="-234" fill="none" stroke="#000" rx="74.38" ry="18"/>
            <text x="1421.57" y="-228.95" font-family="Times,serif" font-size="14" text-anchor="middle">:feature:splash:ui</text>
        </g>
        <g stroke="#000" class="edge">
            <path fill="none" d="M1166.2 32.88c51.09 11.84 137.17 31.8 196.05 45.44"/>
            <path d="m1362.85 74.87 8.95 5.67-10.53 1.15z"/>
        </g>
        <g class="node" transform="translate(4 328)">
            <ellipse cx="1303.57" cy="-162" fill="none" stroke="#000" rx="93.32" ry="18"/>
            <text x="1303.57" y="-156.95" font-family="Times,serif" font-size="14" text-anchor="middle">:feature:onboarding:ui</text>
        </g>
        <g stroke="#000" class="edge">
            <path fill="none" d="M1144.32 39.01c32.32 24.94 94.86 73.21 132.45 102.22"/>
            <path d="m1278.78 138.36 5.78 8.88-10.06-3.34z"/>
        </g>
        <g class="node" transform="translate(4 328)">
            <ellipse cx="1668.57" cy="-234" fill="none" stroke="#000" rx="70.29" ry="18"/>
            <text x="1668.57" y="-228.95" font-family="Times,serif" font-size="14" text-anchor="middle">:feature:login:ui</text>
        </g>
        <g stroke="#000" class="edge">
            <path fill="none" d="M1171.81 29.15c96.38 12.29 313.27 39.94 427.38 54.49"/>
            <path d="m1599.6 80.17 9.48 4.73-10.37 2.21z"/>
        </g>
        <g class="node" transform="translate(4 328)">
            <ellipse cx="186.57" cy="-234" fill="none" stroke="#000" rx="64.15" ry="18"/>
            <text x="186.57" y="-228.95" font-family="Times,serif" font-size="14" text-anchor="middle">:feature:pos:ui</text>
        </g>
        <g stroke="red" stroke-width="2" class="edge">
            <path fill="none" d="M1072.55 26.39C952.65 34.43 643.59 55.49 385.57 76c-40.98 3.26-86.78 7.23-123.69 10.52"/>
            <path fill="red" d="m264.01 89.84-10.27-2.59 9.65-4.38z"/>
        </g>
        <g class="node" transform="translate(4 328)">
            <ellipse cx="510.57" cy="-234" fill="none" stroke="#000" rx="120.45" ry="18"/>
            <text x="510.57" y="-228.95" font-family="Times,serif" font-size="14" text-anchor="middle">:feature:transaction-history:ui</text>
        </g>
        <g stroke="#000" class="edge">
            <path fill="none" d="M1074.51 28.64C975.95 39.97 752.04 65.7 619.16 80.98"/>
            <path d="m619.61 84.45-10.33-2.34 9.53-4.62z"/>
        </g>
        <g class="node" transform="translate(4 328)">
            <ellipse cx="821.57" cy="-234" fill="none" stroke="#000" rx="65.17" ry="18"/>
            <text x="821.57" y="-228.95" font-family="Times,serif" font-size="14" text-anchor="middle">:feature:cart:ui</text>
        </g>
        <g stroke="#000" class="edge">
            <path fill="none" d="M1081.19 32.95C1029.89 45 943.2 65.37 885.18 79"/>
            <path d="m885.99 82.4-10.54-1.12 8.94-5.69z"/>
        </g>
        <g stroke="#000" class="edge">
            <path fill="none" d="M1083.64 181.33c-33.24 11.94-80.38 28.86-113.94 40.91"/>
            <path d="m970.89 225.53-10.59.08 8.23-6.67z"/>
        </g>
        <g stroke="#000" class="edge">
            <path fill="none" d="M1146.6 183.28c22.99 18.27 52.44 48.5 33.97 72.72-15.29 20.06-75.32 34.41-124.42 43.08"/>
            <path d="m1056.84 302.51-10.45-1.76 9.27-5.14z"/>
        </g>
        <g class="node" transform="translate(4 328)">
            <ellipse cx="1074.57" cy="-90" fill="none" stroke="#000" rx="93.32" ry="18"/>
            <text x="1074.57" y="-84.95" font-family="Times,serif" font-size="14" text-anchor="middle">:feature:home:domain</text>
        </g>
        <g stroke="#000" class="edge">
            <path fill="none" d="M1112.68 183.95c-5.07 7.87-11.21 17.43-16.89 26.26"/>
            <path d="m1098.85 211.93-8.36 6.52 2.47-10.3z"/>
        </g>
        <g stroke="#000" class="edge">
            <path fill="none" d="M1352.72 98.25c-102.97 5.6-285.02 19.52-343.15 49.75-27.56 14.33-50.43 42.03-64.76 62.74"/>
            <path d="m947.77 212.61-8.45 6.39 2.62-10.26z"/>
        </g>
        <g stroke="#000" class="edge">
            <path fill="none" d="M1492.6 102.2c69.92 10.24 164.41 33.41 125.97 81.8-68.23 85.9-403.35 113.57-555.55 121.8"/>
            <path d="m1063.63 309.27-10.17-2.97 9.8-4.02z"/>
        </g>
        <g class="node" transform="translate(4 328)">
            <ellipse cx="1510.57" cy="-162" fill="none" stroke="#000" rx="95.37" ry="18"/>
            <text x="1510.57" y="-156.95" font-family="Times,serif" font-size="14" text-anchor="middle">:feature:splash:domain</text>
        </g>
        <g stroke="#000" class="edge">
            <path fill="none" d="M1446.66 111.59c11.14 8.76 25.02 19.68 37.32 29.35"/>
            <path d="m1486.12 138.17 5.7 8.94-10.02-3.43z"/>
        </g>
        <g stroke="#000" class="edge">
            <path fill="none" d="M1238.6 178.45c-11.37 1.87-23.03 3.77-34.03 5.55-101.28 16.35-128.56 10.77-228 36-2.6.66-5.26 1.4-7.93 2.2"/>
            <path d="m969.78 225.51-10.59-.27 8.45-6.4z"/>
        </g>
        <g stroke="#000" class="edge">
            <path fill="none" d="M1291.31 184.06c-20.14 20.14-56.39 53.26-93.74 71.94-44.36 22.19-98.76 35.58-141.08 43.35"/>
            <path d="m1057.12 302.79-10.45-1.7 9.24-5.19z"/>
        </g>
        <g stroke="#000" class="edge">
            <path fill="none" d="M1609.13 101.97c-30.4 3.24-67.35 7.03-100.56 10.03-103.44 9.36-370.54-4.92-466 36-21.98 9.42-21.36 21.01-40 36-13.78 11.08-29.64 22.59-43.14 32.05"/>
            <path d="m961.54 218.84-10.21 2.83 6.22-8.58z"/>
        </g>
        <g stroke="#000" class="edge">
            <path fill="none" d="M1736.45 101.93c65.14 9.9 152.38 32.68 120.12 82.07-43.53 66.65-86.76 52.74-164 72-117.42 29.28-472.24 44.9-629.07 50.53"/>
            <path d="m1063.74 310.02-10.12-3.14 9.87-3.85z"/>
        </g>
        <g class="node" transform="translate(4 328)">
            <ellipse cx="1752.57" cy="-162" fill="none" stroke="#000" rx="91.27" ry="18"/>
            <text x="1752.57" y="-156.95" font-family="Times,serif" font-size="14" text-anchor="middle">:feature:login:domain</text>
        </g>
        <g stroke="#000" class="edge">
            <path fill="none" d="M1692.48 111.59c10.51 8.76 23.61 19.68 35.22 29.35"/>
            <path d="m1729.62 137.98 5.44 9.09-9.92-3.71z"/>
        </g>
        <g stroke="#000" class="edge">
            <path fill="none" d="M251.15 100.31c148.52 13.03 519.2 45.7 525.42 47.69 24.86 7.96 84.17 44.89 120.92 68.61"/>
            <path d="m899.01 213.42 6.49 8.38-10.3-2.51z"/>
        </g>
        <g stroke="#000" class="edge">
            <path fill="none" d="M143.48 106.51c-21.59 7.89-45.17 20.8-57.91 41.49-26.83 43.59-3.3 80.7 40 108 65.48 41.29 586.25 50.45 785.15 52.45"/>
            <path d="m910.74 304.95 9.97 3.6-10.04 3.4z"/>
        </g>
        <g class="node" transform="translate(4 328)">
            <ellipse cx="186.57" cy="-162" fill="none" stroke="#000" rx="85.13" ry="18"/>
            <text x="186.57" y="-156.95" font-family="Times,serif" font-size="14" text-anchor="middle">:feature:pos:domain</text>
        </g>
        <g stroke="red" stroke-width="2" class="edge">
            <path fill="none" d="M190.57 112.3v24.16"/>
            <path fill="red" d="m194.07 134.87-3.5 10-3.5-10z"/>
        </g>
        <g class="node" transform="translate(4 328)">
            <ellipse cx="214.57" cy="-18" fill="none" stroke="#000" rx="55.45" ry="18"/>
            <text x="214.57" y="-12.95" font-family="Times,serif" font-size="14" text-anchor="middle">:core:model</text>
        </g>
        <g stroke="#000" class="edge">
            <path fill="none" d="M127.58 97.79C91.45 103.02 48.79 116.15 25.57 148c-28.28 38.79-29.1 69.83 0 108 16.06 21.07 81.45 35.84 131.71 44.34"/>
            <path d="m157.6 296.85 9.31 5.07-10.44 1.84z"/>
        </g>
        <g stroke="#000" class="edge">
            <path fill="none" d="M616.64 103.79c82.81 8.5 191.97 23.17 230.93 44.21 14.69 7.93 42.6 40.64 61.5 64.1"/>
            <path d="m911.63 209.69 3.5 10-8.98-5.64z"/>
        </g>
        <g stroke="#000" class="edge">
            <path fill="none" d="M404.4 101.53C287.46 109.61 116.7 125.16 96.57 148c-10.58 12-8.96 22.74 0 36 48.01 71.05 95.48 52.59 179 72 119.19 27.7 478.02 44.2 635.97 50.3"/>
            <path d="m911.64 302.8 9.86 3.88-10.12 3.11z"/>
        </g>
        <g class="node" transform="translate(4 328)">
            <ellipse cx="431.57" cy="-162" fill="none" stroke="#000" rx="141.43" ry="18"/>
            <text x="431.57" y="-156.95" font-family="Times,serif" font-size="14" text-anchor="middle">:feature:transaction-history:domain</text>
        </g>
        <g stroke="#000" class="edge">
            <path fill="none" d="M495.45 111.95c-9.57 8.47-21.32 18.88-31.87 28.23"/>
            <path d="m466 142.71-9.8 4.01 5.16-9.25z"/>
        </g>
        <g stroke="#000" class="edge">
            <path fill="none" d="M848.09 111.32c12.2 9.67 26.9 22.72 37.48 36.68 14.16 18.69 25.46 42.78 32.91 61.18"/>
            <path d="m921.7 207.81.37 10.59-6.89-8.05z"/>
        </g>
        <g stroke="#000" class="edge">
            <path fill="none" d="M827.18 112.41C831 144.48 843.27 213.48 880.57 256c14.01 15.97 33.94 27.64 52.81 35.91"/>
            <path d="m934.69 288.66 7.93 7.03-10.58-.55z"/>
        </g>
        <g class="node" transform="translate(4 328)">
            <ellipse cx="677.57" cy="-162" fill="none" stroke="#000" rx="86.15" ry="18"/>
            <text x="677.57" y="-156.95" font-family="Times,serif" font-size="14" text-anchor="middle">:feature:cart:domain</text>
        </g>
        <g stroke="#000" class="edge">
            <path fill="none" d="M794.32 110.19c-20.35 9.89-47.18 22.93-69.56 33.81"/>
            <path d="m726.39 147.1-10.52 1.23 7.46-7.52z"/>
        </g>
        <g stroke="#000" class="edge">
            <path fill="none" d="M1446.05 178.88c-12.13 1.88-24.66 3.67-36.48 5.12-191.68 23.45-244.2-4.57-433 36-2.76.59-5.58 1.3-8.4 2.09"/>
            <path d="m969.45 225.36-10.59-.37 8.51-6.31z"/>
        </g>
        <g stroke="#000" class="edge">
            <path fill="none" d="M1471.32 182.41c-54.17 18.95-150.03 51.33-233.75 73.59-62.39 16.59-134.61 31.44-185.34 41.17"/>
            <path d="m1053.07 300.58-10.48-1.57 9.17-5.31z"/>
        </g>
        <g stroke="#000" class="edge">
            <path fill="none" d="M1682.9 177c-20.77 2.56-43.41 5.13-64.33 7-284.64 25.48-361.81-20.27-642 36-2.81.56-5.67 1.26-8.53 2.04"/>
            <path d="m969.16 225.35-10.58-.4 8.53-6.29z"/>
        </g>
        <g stroke="#000" class="edge">
            <path fill="none" d="M1742.67 184.03c-18.37 21.1-52.89 56.2-91.1 71.97-104.32 43.05-435.5 51.26-587 52.74"/>
            <path d="m1064.64 312.24-10.03-3.42 9.97-3.58z"/>
        </g>
        <g stroke="#000" class="edge">
            <path fill="none" d="M252.02 178.87c11.13 1.91 22.67 3.71 33.55 5.13 219.96 28.68 484.39 44.7 592.86 50.49"/>
            <path d="m878.34 230.98 9.81 4.02-10.18 2.97z"/>
        </g>
        <g stroke="#000" class="edge">
            <path fill="none" d="M214.91 183.55c32.19 20.94 91.45 56.22 147.66 72.45 101.16 29.21 406.15 44.53 549.28 50.28"/>
            <path d="m911.75 302.77 9.85 3.9-10.13 3.1z"/>
        </g>
        <g class="node" transform="translate(4 328)">
            <ellipse cx="431.57" cy="-90" fill="none" stroke="#000" rx="63.63" ry="18"/>
            <text x="431.57" y="-84.95" font-family="Times,serif" font-size="14" text-anchor="middle">:core:database</text>
        </g>
        <g stroke="red" stroke-width="2" class="edge">
            <path fill="none" d="M239.85 181.08c40.92 11.69 99.06 28.3 141.33 40.38"/>
            <path fill="red" d="m380.54 217.64 8.66 6.11-10.58.62z"/>
        </g>
        <g stroke="#000" class="edge">
            <path fill="none" d="M492.82 246.26c102.02 12.94 314.87 39.93 425.16 53.91"/>
            <path d="m918.31 296.69 9.48 4.73-10.36 2.21z"/>
        </g>
        <g stroke="red" stroke-width="2" class="edge">
            <path fill="none" d="M394.75 252.17c-35.98 11.6-88.49 28.54-126.83 40.91"/>
            <path fill="red" d="m270.49 295.93-10.59-.26 8.44-6.4z"/>
        </g>
        <g stroke="#000" class="edge">
            <path fill="none" d="m527.43 180.04 353.01 50.13"/>
            <path d="m880.47 226.64 9.41 4.87-10.39 2.06z"/>
        </g>
        <g stroke="#000" class="edge">
            <path fill="none" d="M484.78 183.32c58.26 18.99 158.41 50.54 245.79 72.68 65 16.47 140.22 31.53 192.42 41.34"/>
            <path d="m923.42 293.86 9.19 5.28-10.48 1.6z"/>
        </g>
        <g stroke="#000" class="edge">
            <path fill="none" d="M435.57 184.3v24.16"/>
            <path d="m439.07 208.38-3.5 10-3.5-10z"/>
        </g>
        <g stroke="#000" class="edge">
            <path fill="none" d="M731.26 181.08c45 12.76 110.66 31.36 153.68 43.55"/>
            <path d="m885.77 221.23 8.67 6.1-10.58.64z"/>
        </g>
        <g stroke="#000" class="edge">
            <path fill="none" d="M696.04 184.09c18 20.18 50.66 53.33 85.53 71.91 42.54 22.67 95.26 36 136.71 43.62"/>
            <path d="m918.65 296.13 9.24 5.18-10.45 1.72z"/>
        </g>
        <g stroke="#000" class="edge">
            <path fill="none" d="m632.08 181.08-141.9 40.38"/>
            <path d="m491.24 224.8-10.58-.63 8.66-6.11z"/>
        </g>
    </g>
</svg>
