<svg xmlns="http://www.w3.org/2000/svg" width="772pt" height="332pt" viewBox="0 0 772.41 332">
    <g class="graph">
        <path fill="#fff" d="M0 332V0h772.41v332z"/>
        <g class="node" transform="translate(4 328)">
            <ellipse cx="291.17" cy="-306" fill="none" stroke="#000" rx="27" ry="18"/>
            <text x="291.17" y="-300.95" font-family="Times,serif" font-size="14" text-anchor="middle">:app</text>
        </g>
        <g class="node" transform="translate(4 328)">
            <ellipse cx="560.17" cy="-234" fill="none" stroke="#000" rx="52.38" ry="18"/>
            <text x="560.17" y="-228.95" font-family="Times,serif" font-size="14" text-anchor="middle">:navigation</text>
        </g>
        <g stroke="red" stroke-width="2" class="edge">
            <path fill="none" d="M320 29.46c43.53 11.33 134.49 35 192.27 50.03"/>
            <path fill="red" d="m511.63 75.71 8.8 5.91-10.56.86z"/>
        </g>
        <g class="node" transform="translate(4 328)">
            <ellipse cx="171.17" cy="-18" fill="none" stroke="#000" rx="65.17" ry="18"/>
            <text x="171.17" y="-12.95" font-family="Times,serif" font-size="14" text-anchor="middle">:core:common</text>
        </g>
        <g stroke="#000" class="edge">
            <path fill="none" d="M268.45 25.46C209.86 32.46 70.67 58.22 12.17 148c-9.08 13.94-13.05 87.79 2 108 20.21 27.13 54.73 40.58 86.64 47.17"/>
            <path d="m101.27 299.69 9.2 5.26-10.47 1.63z"/>
        </g>
        <g class="node" transform="translate(4 328)">
            <ellipse cx="677.17" cy="-18" fill="none" stroke="#000" rx="82.06" ry="18"/>
            <text x="677.17" y="-12.95" font-family="Times,serif" font-size="14" text-anchor="middle">:core:designsystem</text>
        </g>
        <g stroke="#000" class="edge">
            <path fill="none" d="M322.38 24.44C379.72 28.11 516.62 40.19 625.17 76c66.08 21.79 102.85 12.56 139 72 12.75 20.95-7.28 98.68-13 108-7.41 12.08-18.67 22.37-30.01 30.59"/>
            <path d="m723.2 289.43-10.24 2.71 6.31-8.5z"/>
        </g>
        <g class="node" transform="translate(4 328)">
            <ellipse cx="107.17" cy="-162" fill="none" stroke="#000" rx="78.48" ry="18"/>
            <text x="107.17" y="-156.95" font-family="Times,serif" font-size="14" text-anchor="middle">:feature:login:data</text>
        </g>
        <g stroke="#000" class="edge">
            <path fill="none" d="M277.86 36.36c-31.22 24.1-97.33 75.12-136.26 105.16"/>
            <path d="m144.05 144.05-10.06 3.34 5.78-8.88z"/>
        </g>
        <g class="node" transform="translate(4 328)">
            <ellipse cx="291.17" cy="-162" fill="none" stroke="#000" rx="87.69" ry="18"/>
            <text x="291.17" y="-156.95" font-family="Times,serif" font-size="14" text-anchor="middle">:feature:product:data</text>
        </g>
        <g stroke="#000" class="edge">
            <path fill="none" d="M295.17 40.41v96.17"/>
            <path d="m298.67 136.38-3.5 10-3.5-10z"/>
        </g>
        <g stroke="#000" class="edge">
            <path fill="none" d="M511.81 96.23C382.57 99.79 56.56 112.28 24.17 148c-12.6 13.9-9.97 87.07 6 108 17.87 23.42 47.13 36.5 74.69 43.8"/>
            <path d="m105.35 296.32 8.9 5.74-10.54 1.06z"/>
        </g>
        <g stroke="#000" class="edge">
            <path fill="none" d="M611.01 102.33c47.79 8.54 117.16 24.28 133.16 45.67 31.53 42.14-9.68 102.08-38.78 135.67"/>
            <path d="m708.22 285.76-9.27 5.12 4.05-9.79z"/>
        </g>
        <g class="node" transform="translate(4 328)">
            <ellipse cx="487.17" cy="-18" fill="none" stroke="#000" rx="39.07" ry="18"/>
            <text x="487.17" y="-12.95" font-family="Times,serif" font-size="14" text-anchor="middle">:core:ui</text>
        </g>
        <g stroke="#000" class="edge">
            <path fill="none" d="M616.4 96.69c37.5 4.29 85.68 16.76 110.77 51.31 9.41 12.95 8.26 22.29 0 36C686.12 252.19 594 285.14 537.76 299.44"/>
            <path d="m538.69 302.82-10.54-1.04 8.89-5.76z"/>
        </g>
        <g class="node" transform="translate(4 328)">
            <ellipse cx="644.17" cy="-162" fill="none" stroke="#000" rx="70.29" ry="18"/>
            <text x="644.17" y="-156.95" font-family="Times,serif" font-size="14" text-anchor="middle">:feature:login:ui</text>
        </g>
        <g stroke="red" stroke-width="2" class="edge">
            <path fill="none" d="M583.23 110.88c10.73 8.94 24.33 20.27 36.31 30.26"/>
            <path fill="red" d="m620.55 137.42 5.44 9.09-9.93-3.71z"/>
        </g>
        <g class="node" transform="translate(4 328)">
            <ellipse cx="476.17" cy="-162" fill="none" stroke="#000" rx="79.5" ry="18"/>
            <text x="476.17" y="-156.95" font-family="Times,serif" font-size="14" text-anchor="middle">:feature:product:ui</text>
        </g>
        <g stroke="#000" class="edge">
            <path fill="none" d="M545.11 110.88c-10.64 8.88-24.13 20.11-36.04 30.04"/>
            <path d="m511.42 143.52-9.93 3.71 5.45-9.09z"/>
        </g>
        <g stroke="#000" class="edge">
            <path fill="none" d="M78.24 182.68c-14.48 8.78-30 21.23-38.07 37.32-7.17 14.3-9.01 22.78 0 36 15.08 22.11 40.9 35 65.95 42.51"/>
            <path d="m106.96 295.11 8.73 5.99-10.56.76z"/>
        </g>
        <g stroke="#000" class="edge">
            <path fill="none" d="M165.1 179.41c38.05 9.42 89.91 23.64 134.07 40.59 33.78 12.96 38.6 24.83 73 36 41.57 13.5 152.6 30.92 229.57 42.03"/>
            <path d="m601.94 294.52 9.4 4.89-10.39 2.04z"/>
        </g>
        <g stroke="#000" class="edge">
            <path fill="none" d="M147.1 182.37c43.33 18.34 118.52 49.54 184.07 73.63 39.44 14.49 84.97 29.4 117.35 39.7"/>
            <path d="m449.47 292.33 8.48 6.35-10.59.32z"/>
        </g>
        <g class="node" transform="translate(4 328)">
            <ellipse cx="437.17" cy="-90" fill="none" stroke="#000" rx="60.05" ry="18"/>
            <text x="437.17" y="-84.95" font-family="Times,serif" font-size="14" text-anchor="middle">:core:domain</text>
        </g>
        <g stroke="#000" class="edge">
            <path fill="none" d="M167.53 178.95c59.79 12.69 153.84 32.64 214.62 45.53"/>
            <path d="m382.56 220.99 9.06 5.5-10.51 1.35z"/>
        </g>
        <g class="node" transform="translate(4 328)">
            <ellipse cx="107.17" cy="-90" fill="none" stroke="#000" rx="62.1" ry="18"/>
            <text x="107.17" y="-84.95" font-family="Times,serif" font-size="14" text-anchor="middle">:core:network</text>
        </g>
        <g stroke="#000" class="edge">
            <path fill="none" d="M111.17 184.3v24.16"/>
            <path d="m114.67 208.38-3.5 10-3.5-10z"/>
        </g>
        <g stroke="#000" class="edge">
            <path fill="none" d="M280.7 184.13c-20.93 24.76-59.77 70.73-84.04 99.45"/>
            <path d="m199.43 285.72-9.13 5.38 3.79-9.9z"/>
        </g>
        <g stroke="#000" class="edge">
            <path fill="none" d="M359.41 178.66c43.38 8.88 101.49 22.75 150.76 41.34 48.39 18.26 100.66 46.9 134.5 66.74"/>
            <path d="m646.43 283.71 6.83 8.11-10.39-2.08z"/>
        </g>
        <g stroke="#000" class="edge">
            <path fill="none" d="M306.44 184.07c13.62 19.54 38.17 51.48 65.73 71.93 23.16 17.18 52.76 30.39 76.65 39.33"/>
            <path d="m449.71 291.93 8.21 6.69-10.59-.11z"/>
        </g>
        <g stroke="#000" class="edge">
            <path fill="none" d="M328.67 183.06c21.22 10.17 48.82 23.41 71.37 34.22"/>
            <path d="m401.46 214.08 7.5 7.48-10.53-1.17z"/>
        </g>
        <g stroke="#000" class="edge">
            <path fill="none" d="M254.79 182.36c-28.45 10.83-66.64 25.36-96.49 36.71"/>
            <path d="m159.72 222.28-10.59.28 8.1-6.83z"/>
        </g>
        <g stroke="#000" class="edge">
            <path fill="none" d="M613.53 182.12c-20.19 9.54-45.68 22.88-66.36 37.88-18.57 13.47-16.48 25.73-37 36-44.73 22.4-177.7 38.42-262.04 46.65"/>
            <path d="m248.62 306.12-10.29-2.52 9.62-4.44z"/>
        </g>
        <g stroke="#000" class="edge">
            <path fill="none" d="M668.46 183.37c10.11 9.49 21.3 22.37 26.71 36.63 7.46 19.65 3.23 43.18-2.46 61.12"/>
            <path d="m696.09 282.04-6.63 8.27.03-10.6z"/>
        </g>
        <g stroke="#000" class="edge">
            <path fill="none" d="M629.55 183.85c-28.07 25.38-81.27 73.5-112.9 102.11"/>
            <path d="m519.22 288.35-9.76 4.11 5.07-9.3z"/>
        </g>
        <g stroke="red" stroke-width="2" class="edge">
            <path fill="none" d="M606.78 181c-33.46 11.31-80.68 27.28-116.14 39.27"/>
            <path fill="red" d="m493.51 223-10.6-.11 8.35-6.52z"/>
        </g>
        <g stroke="#000" class="edge">
            <path fill="none" d="M446.37 182.74c-56.01 26.07-167.92 78.18-229.01 106.62"/>
            <path d="m219.2 292.36-10.54 1.05 7.59-7.39z"/>
        </g>
        <g stroke="#000" class="edge">
            <path fill="none" d="M534.49 179.52c27.39 8.24 59.96 21.16 84.68 40.48 21.16 16.53 37.99 42.26 48.74 61.81"/>
            <path d="m670.98 280.12 1.56 10.48-7.76-7.21z"/>
        </g>
        <g stroke="#000" class="edge">
            <path fill="none" d="M492.9 184.15c6.56 9.93 13.88 22.97 17.27 35.85 5.38 20.43-.04 43.8-6.45 61.46"/>
            <path d="m506.98 282.75-6.95 8 .44-10.59z"/>
        </g>
        <g stroke="#000" class="edge">
            <path fill="none" d="M470.53 184.3c-4.29 7.72-9.46 16.99-14.25 25.59"/>
            <path d="m459.36 211.54-7.92 7.03 1.81-10.44z"/>
        </g>
        <g stroke="red" stroke-width="2" class="edge">
            <path fill="none" d="M397.25 250.56c-45.27 11.91-116.03 30.53-165.47 43.54"/>
            <path fill="red" d="m234.44 297.02-10.56-.84 8.78-5.93z"/>
        </g>
        <g stroke="#000" class="edge">
            <path fill="none" d="M483.25 251.27c38.59 11.26 96.11 28.03 139.21 40.61"/>
            <path d="m623.29 288.47 8.62 6.16-10.58.56z"/>
        </g>
        <g stroke="#000" class="edge">
            <path fill="none" d="M453.28 255.95c5.92 8.28 13.17 18.43 19.73 27.63"/>
            <path d="m475.68 281.29 2.97 10.17-8.66-6.1z"/>
        </g>
        <g stroke="#000" class="edge">
            <path fill="none" d="M126.34 255.59c7.7 8.42 17.21 18.83 25.79 28.21"/>
            <path d="m154.49 281.18 4.16 9.75-9.33-5.02z"/>
        </g>
    </g>
</svg>
