<svg xmlns="http://www.w3.org/2000/svg" width="296pt" height="188pt" viewBox="0 0 296.24 188">
    <g class="graph">
        <path fill="#fff" d="M0 188V0h296.24v188z"/>
        <g class="node" transform="translate(4 184)">
            <ellipse cx="162.07" cy="-162" fill="none" stroke="#000" rx="74.38" ry="18"/>
            <text x="162.07" y="-156.95" font-family="Times,serif" font-size="14" text-anchor="middle">:feature:splash:ui</text>
        </g>
        <g class="node" transform="translate(4 184)">
            <ellipse cx="39.07" cy="-18" fill="none" stroke="#000" rx="39.07" ry="18"/>
            <text x="39.07" y="-12.95" font-family="Times,serif" font-size="14" text-anchor="middle">:core:ui</text>
        </g>
        <g stroke="#000" class="edge">
            <path fill="none" d="M119.62 36.49C99.08 44.73 76.39 57.36 62.07 76c-13.19 17.17-17.7 41.45-19.05 60.31"/>
            <path d="m46.52 136.44-3.92 9.84-3.07-10.14z"/>
        </g>
        <g class="node" transform="translate(4 184)">
            <ellipse cx="223.07" cy="-18" fill="none" stroke="#000" rx="65.17" ry="18"/>
            <text x="223.07" y="-12.95" font-family="Times,serif" font-size="14" text-anchor="middle">:core:common</text>
        </g>
        <g stroke="#000" class="edge">
            <path fill="none" d="M215.7 35.75c20.55 8 42.35 20.64 54.37 40.25 12.71 20.75-1.85 45.82-17.37 64.05"/>
            <path d="m255.44 142.24-9.31 5.05 4.13-9.76z"/>
        </g>
        <g class="node" transform="translate(4 184)">
            <ellipse cx="162.07" cy="-90" fill="none" stroke="#000" rx="95.37" ry="18"/>
            <text x="162.07" y="-84.95" font-family="Times,serif" font-size="14" text-anchor="middle">:feature:splash:domain</text>
        </g>
        <g stroke="red" stroke-width="2" class="edge">
            <path fill="none" d="M166.07 40.3v24.16"/>
            <path fill="red" d="m169.57 62.87-3.5 10-3.5-10z"/>
        </g>
        <g stroke="red" stroke-width="2" class="edge">
            <path fill="none" d="M136.92 111.59c-17.98 10.23-41.12 23.4-59.93 34.1"/>
            <path fill="red" d="m80.11 147.95-10.43 1.9 6.96-7.99z"/>
        </g>
        <g stroke="#000" class="edge">
            <path fill="none" d="M180.83 111.95c7.27 8.34 16.18 18.56 24.23 27.8"/>
            <path d="m207.51 137.23 3.93 9.84-9.21-5.24z"/>
        </g>
    </g>
</svg>
