<svg xmlns="http://www.w3.org/2000/svg" width="608pt" height="260pt" viewBox="0 0 608.22 260">
    <g class="graph">
        <path fill="#fff" d="M0 260V0h608.22v260z"/>
        <g class="node" transform="translate(4 256)">
            <ellipse cx="203.53" cy="-234" fill="none" stroke="#000" rx="72.34" ry="18"/>
            <text x="203.53" y="-228.95" font-family="Times,serif" font-size="14" text-anchor="middle">:feature:pos:data</text>
        </g>
        <g class="node" transform="translate(4 256)">
            <ellipse cx="62.53" cy="-90" fill="none" stroke="#000" rx="39.07" ry="18"/>
            <text x="62.53" y="-84.95" font-family="Times,serif" font-size="14" text-anchor="middle">:core:ui</text>
        </g>
        <g stroke="#000" class="edge">
            <path fill="none" d="M140.93 29.24C110.25 35.83 76.5 49.17 57.53 76c-12.46 17.62-8.75 42.33-2.74 61.25"/>
            <path d="m58.01 135.87.07 10.59-6.66-8.24z"/>
        </g>
        <g class="node" transform="translate(4 256)">
            <ellipse cx="212.53" cy="-18" fill="none" stroke="#000" rx="65.17" ry="18"/>
            <text x="212.53" y="-12.95" font-family="Times,serif" font-size="14" text-anchor="middle">:core:common</text>
        </g>
        <g stroke="#000" class="edge">
            <path fill="none" d="M143.46 30.58C110.54 37.49 71.91 50.71 45.53 76c-35.73 34.23-57.13 68.75-27 108 15.86 20.67 78.35 35.03 128.94 43.54"/>
            <path d="m147.92 224.07 9.31 5.06-10.43 1.85z"/>
        </g>
        <g class="node" transform="translate(4 256)">
            <ellipse cx="221.53" cy="-90" fill="none" stroke="#000" rx="63.63" ry="18"/>
            <text x="221.53" y="-84.95" font-family="Times,serif" font-size="14" text-anchor="middle">:core:database</text>
        </g>
        <g stroke="#000" class="edge">
            <path fill="none" d="M223.59 39.61c8.3 9.76 17.57 22.81 21.94 36.39 6.51 20.26.68 43.76-6.34 61.53"/>
            <path d="m242.44 138.85-7.19 7.79.76-10.57z"/>
        </g>
        <g class="node" transform="translate(4 256)">
            <ellipse cx="147.53" cy="-162" fill="none" stroke="#000" rx="85.13" ry="18"/>
            <text x="147.53" y="-156.95" font-family="Times,serif" font-size="14" text-anchor="middle">:feature:pos:domain</text>
        </g>
        <g stroke="red" stroke-width="2" class="edge">
            <path fill="none" d="M193.97 39.95c-6.6 8.25-14.68 18.35-22.01 27.51"/>
            <path fill="red" d="m175.83 68.22-8.98 5.63 3.51-10z"/>
        </g>
        <g class="node" transform="translate(4 256)">
            <ellipse cx="350.53" cy="-162" fill="none" stroke="#000" rx="62.1" ry="18"/>
            <text x="350.53" y="-156.95" font-family="Times,serif" font-size="14" text-anchor="middle">:core:network</text>
        </g>
        <g stroke="#000" class="edge">
            <path fill="none" d="M240.15 38.54c21.49 10.23 49.82 23.72 72.91 34.71"/>
            <path d="m314.36 70 7.53 7.46-10.54-1.14z"/>
        </g>
        <g class="node" transform="translate(4 256)">
            <ellipse cx="444.53" cy="-90" fill="none" stroke="#000" rx="65.17" ry="18"/>
            <text x="444.53" y="-84.95" font-family="Times,serif" font-size="14" text-anchor="middle">:core:datastore</text>
        </g>
        <g stroke="#000" class="edge">
            <path fill="none" d="M270.89 31.1c56.29 8.46 132.93 23.5 154.64 44.9 15.9 15.68 21.29 40.81 22.91 60.38"/>
            <path d="m451.92 136.03-2.98 10.17-4.01-9.81z"/>
        </g>
        <g stroke="#000" class="edge">
            <path fill="none" d="M223.3 184.3c-.95 7.38-2.08 16.18-3.14 24.45"/>
            <path d="m223.66 208.92-4.74 9.47-2.2-10.36z"/>
        </g>
        <g class="node" transform="translate(4 256)">
            <ellipse cx="351.53" cy="-18" fill="none" stroke="#000" rx="55.45" ry="18"/>
            <text x="351.53" y="-12.95" font-family="Times,serif" font-size="14" text-anchor="middle">:core:model</text>
        </g>
        <g stroke="red" stroke-width="2" class="edge">
            <path fill="none" d="M254.05 182.36c18.8 10.12 43.62 23.49 64 34.46"/>
            <path fill="red" d="m318.14 212.9 7.15 7.82-10.46-1.66z"/>
        </g>
        <g stroke="#000" class="edge">
            <path fill="none" d="M130.95 111.95c-11.2 9.22-25.19 20.74-37.27 30.69"/>
            <path d="m96 145.26-9.94 3.66 5.49-9.06z"/>
        </g>
        <g stroke="#000" class="edge">
            <path fill="none" d="M147.59 112.36c-3.32 18.68-5.98 48.77 4.94 71.64 5.81 12.19 15.93 22.54 26.42 30.78"/>
            <path d="m180.91 211.88 6.04 8.7-10.15-3.03z"/>
        </g>
        <g stroke="red" stroke-width="2" class="edge">
            <path fill="none" d="M169.44 111.95c9.16 8.66 20.46 19.35 30.51 28.86"/>
            <path fill="red" d="m200.97 136.96 4.86 9.41-9.67-4.33z"/>
        </g>
        <g stroke="#000" class="edge">
            <path fill="none" d="M346.52 112.27c-9.47 19.15-26.7 50.17-47.99 71.73-12.2 12.35-27.76 23.29-42.03 31.99"/>
            <path d="m258.58 218.82-10.4 2.05 6.85-8.08z"/>
        </g>
        <g stroke="#000" class="edge">
            <path fill="none" d="M376.33 111.24c12.25 9.12 27.74 20.66 41.23 30.7"/>
            <path d="m419.37 138.93 5.93 8.78-10.11-3.17z"/>
        </g>
        <g stroke="#000" class="edge">
            <path fill="none" d="M354.65 112.41c.17 23.98.47 67.45.68 96.17"/>
            <path d="m358.82 208.35-3.43 10.03-3.57-9.98z"/>
        </g>
        <g stroke="#000" class="edge">
            <path fill="none" d="M405.7 179.92c-38.14 11.51-94.11 28.4-135.28 40.82"/>
            <path d="m271.52 224.06-10.58-.46 8.56-6.24z"/>
        </g>
        <g stroke="#000" class="edge">
            <path fill="none" d="M426.96 183.24c-12.3 9.25-27.89 20.99-41.37 31.13"/>
            <path d="m387.96 216.97-10.09 3.21 5.88-8.81z"/>
        </g>
        <g class="node" transform="translate(4 256)">
            <ellipse cx="512.53" cy="-18" fill="none" stroke="#000" rx="87.69" ry="18"/>
            <text x="512.53" y="-12.95" font-family="Times,serif" font-size="14" text-anchor="middle">:core:datastore-proto</text>
        </g>
        <g stroke="#000" class="edge">
            <path fill="none" d="M464.64 183.59c8.18 8.42 18.29 18.83 27.4 28.21"/>
            <path d="m494.54 209.35 4.46 9.61-9.48-4.74z"/>
        </g>
    </g>
</svg>
