<svg xmlns="http://www.w3.org/2000/svg" width="896" height="260pt" viewBox="0 0 671.73 260">
    <g class="graph">
        <path fill="#fff" d="M0 260V0h671.73v260z"/>
        <g class="node" transform="translate(4 256)">
            <ellipse cx="249.04" cy="-234" fill="none" stroke="#000" rx="128.63" ry="18"/>
            <text x="249.04" y="-228.95" font-family="Times,serif" font-size="14" text-anchor="middle">:feature:transaction-history:data</text>
        </g>
        <g class="node" transform="translate(4 256)">
            <ellipse cx="67.04" cy="-90" fill="none" stroke="#000" rx="39.07" ry="18"/>
            <text x="67.04" y="-84.95" font-family="Times,serif" font-size="14" text-anchor="middle">:core:ui</text>
        </g>
        <g stroke="#000" class="edge">
            <path fill="none" d="M151.7 33.41C96.48 41.41 36.01 54.76 19.04 76c-16.71 20.92 3.88 47.79 23.87 66.51"/>
            <path d="m45.05 139.72 5.15 9.26-9.8-4.02z"/>
        </g>
        <g class="node" transform="translate(4 256)">
            <ellipse cx="276.04" cy="-18" fill="none" stroke="#000" rx="65.17" ry="18"/>
            <text x="276.04" y="-12.95" font-family="Times,serif" font-size="14" text-anchor="middle">:core:common</text>
        </g>
        <g stroke="#000" class="edge">
            <path fill="none" d="M148.08 32.76C90.34 40.53 26.86 53.89 9.04 76c-10.04 12.46-1.53 20.07 0 36 3.13 32.45-8.92 48.82 14 72 25.29 25.57 117.12 39.76 183.81 46.88"/>
            <path d="m207.06 227.38 9.59 4.51-10.31 2.46z"/>
        </g>
        <g class="node" transform="translate(4 256)">
            <ellipse cx="279.04" cy="-90" fill="none" stroke="#000" rx="63.63" ry="18"/>
            <text x="279.04" y="-84.95" font-family="Times,serif" font-size="14" text-anchor="middle">:core:database</text>
        </g>
        <g stroke="#000" class="edge">
            <path fill="none" d="M284.75 39.89c13.17 8.84 27.05 21 34.29 36.11 10.07 20.99-1.56 45.56-14.21 63.57"/>
            <path d="m307.95 141.24-8.81 5.88 3.22-10.09z"/>
        </g>
        <g class="node" transform="translate(4 256)">
            <ellipse cx="165.04" cy="-162" fill="none" stroke="#000" rx="141.43" ry="18"/>
            <text x="165.04" y="-156.95" font-family="Times,serif" font-size="14" text-anchor="middle">:feature:transaction-history:domain</text>
        </g>
        <g stroke="red" stroke-width="2" class="edge">
            <path fill="none" d="M232.71 39.95c-10.27 8.55-22.92 19.09-34.23 28.51"/>
            <path fill="red" d="m202.02 70.07-9.92 3.72 5.44-9.09z"/>
        </g>
        <g class="node" transform="translate(4 256)">
            <ellipse cx="424.04" cy="-162" fill="none" stroke="#000" rx="62.1" ry="18"/>
            <text x="424.04" y="-156.95" font-family="Times,serif" font-size="14" text-anchor="middle">:core:network</text>
        </g>
        <g stroke="#000" class="edge">
            <path fill="none" d="M294.07 39.41c26.4 10.56 60.75 24.3 88.06 35.22"/>
            <path d="m383.21 71.3 7.98 6.96-10.58-.47z"/>
        </g>
        <g class="node" transform="translate(4 256)">
            <ellipse cx="508.04" cy="-90" fill="none" stroke="#000" rx="65.17" ry="18"/>
            <text x="508.04" y="-84.95" font-family="Times,serif" font-size="14" text-anchor="middle">:core:datastore</text>
        </g>
        <g stroke="#000" class="edge">
            <path fill="none" d="M355.1 33.25C413.58 41.3 479.2 54.78 499.04 76c14.93 15.96 17.42 41.07 16.61 60.56"/>
            <path d="m519.16 136.61-4.24 9.71-2.74-10.24z"/>
        </g>
        <g stroke="#000" class="edge">
            <path fill="none" d="m282.3 184.3-1.03 24.16"/>
            <path d="m284.77 208.54-3.93 9.84-3.07-10.14z"/>
        </g>
        <g class="node" transform="translate(4 256)">
            <ellipse cx="415.04" cy="-18" fill="none" stroke="#000" rx="55.45" ry="18"/>
            <text x="415.04" y="-12.95" font-family="Times,serif" font-size="14" text-anchor="middle">:core:model</text>
        </g>
        <g stroke="red" stroke-width="2" class="edge">
            <path fill="none" d="M312.89 182.36c19.75 10.17 45.86 23.61 67.24 34.61"/>
            <path fill="red" d="m380.22 213.08 7.29 7.69-10.5-1.47z"/>
        </g>
        <g stroke="#000" class="edge">
            <path fill="none" d="M145.07 112.12c-13.35 9.54-30.09 21.5-44.28 31.63"/>
            <path d="m102.86 146.57-10.17 2.97 6.1-8.66z"/>
        </g>
        <g stroke="#000" class="edge">
            <path fill="none" d="M174.23 112.45c6.28 19.03 18.22 49.67 35.81 71.55 9.42 11.72 21.98 22.27 33.85 30.82"/>
            <path d="m245.7 211.82 6.25 8.55-10.22-2.79z"/>
        </g>
        <g stroke="red" stroke-width="2" class="edge">
            <path fill="none" d="M196.93 112.12c15.28 9.39 34.39 21.12 50.71 31.14"/>
            <path fill="red" d="m248.12 139.45 6.69 8.22-10.35-2.25z"/>
        </g>
        <g stroke="#000" class="edge">
            <path fill="none" d="M416.56 111.93c-13.27 18.84-36.37 49.59-60.52 72.07-12.22 11.38-27.02 22.24-40.31 31.14"/>
            <path d="m317.94 217.88-10.29 2.54 6.46-8.4z"/>
        </g>
        <g stroke="#000" class="edge">
            <path fill="none" d="M447.52 111.24c10.74 8.94 24.27 20.21 36.15 30.12"/>
            <path d="m485.77 138.55 5.44 9.09-9.92-3.71z"/>
        </g>
        <g stroke="#000" class="edge">
            <path fill="none" d="M426.94 112.41c-1.52 23.98-4.28 67.45-6.1 96.17"/>
            <path d="m424.35 208.62-4.13 9.76-2.86-10.2z"/>
        </g>
        <g stroke="#000" class="edge">
            <path fill="none" d="M469.22 179.92c-38.14 11.51-94.11 28.4-135.29 40.82"/>
            <path d="m335.04 224.06-10.58-.46 8.56-6.24z"/>
        </g>
        <g stroke="#000" class="edge">
            <path fill="none" d="M490.47 183.24c-12.29 9.25-27.89 20.99-41.37 31.13"/>
            <path d="m451.48 216.97-10.1 3.21 5.89-8.81z"/>
        </g>
        <g class="node" transform="translate(4 256)">
            <ellipse cx="576.04" cy="-18" fill="none" stroke="#000" rx="87.69" ry="18"/>
            <text x="576.04" y="-12.95" font-family="Times,serif" font-size="14" text-anchor="middle">:core:datastore-proto</text>
        </g>
        <g stroke="#000" class="edge">
            <path fill="none" d="M528.16 183.59c8.18 8.42 18.29 18.83 27.4 28.21"/>
            <path d="m558.06 209.35 4.46 9.61-9.48-4.74z"/>
        </g>
    </g>
</svg>
