<svg xmlns="http://www.w3.org/2000/svg" width="340pt" height="260pt" viewBox="0 0 339.62 260">
    <g class="graph">
        <path fill="#fff" d="M0 260V0h339.62v260z"/>
        <g class="node" transform="translate(4 256)">
            <ellipse cx="65.17" cy="-234" fill="none" stroke="#000" rx="65.17" ry="18"/>
            <text x="65.17" y="-228.95" font-family="Times,serif" font-size="14" text-anchor="middle">:feature:cart:ui</text>
        </g>
        <g class="node" transform="translate(4 256)">
            <ellipse cx="94.17" cy="-90" fill="none" stroke="#000" rx="39.07" ry="18"/>
            <text x="94.17" y="-84.95" font-family="Times,serif" font-size="14" text-anchor="middle">:core:ui</text>
        </g>
        <g stroke="#000" class="edge">
            <path fill="none" d="M72.73 40.41c4.91 24.09 13.85 67.84 19.71 96.56"/>
            <path d="m95.8 135.91-1.43 10.5-5.43-9.1z"/>
        </g>
        <g class="node" transform="translate(4 256)">
            <ellipse cx="137.17" cy="-18" fill="none" stroke="#000" rx="65.17" ry="18"/>
            <text x="137.17" y="-12.95" font-family="Times,serif" font-size="14" text-anchor="middle">:core:common</text>
        </g>
        <g stroke="#000" class="edge">
            <path fill="none" d="M60.72 40.34C46.89 71.41 23.52 137.64 50.17 184c8.82 15.34 23.98 26.66 39.42 34.8"/>
            <path d="m90.88 215.54 7.48 7.51-10.53-1.21z"/>
        </g>
        <g class="node" transform="translate(4 256)">
            <ellipse cx="179.17" cy="-162" fill="none" stroke="#000" rx="86.15" ry="18"/>
            <text x="179.17" y="-156.95" font-family="Times,serif" font-size="14" text-anchor="middle">:feature:cart:domain</text>
        </g>
        <g stroke="red" stroke-width="2" class="edge">
            <path fill="none" d="M95.04 38.88c15.27 9.38 34.83 21.39 51.64 31.72"/>
            <path fill="red" d="m146.94 66.65 6.7 8.21-10.36-2.25z"/>
        </g>
        <g stroke="#000" class="edge">
            <path fill="none" d="M162.59 111.95c-11.19 9.22-25.19 20.74-37.27 30.69"/>
            <path d="m127.64 145.26-9.94 3.66 5.49-9.06z"/>
        </g>
        <g stroke="#000" class="edge">
            <path fill="none" d="M178.02 112.41c-7.12 24.09-20.06 67.84-28.56 96.56"/>
            <path d="m152.85 209.84-6.19 8.6-.52-10.58z"/>
        </g>
        <g class="node" transform="translate(4 256)">
            <ellipse cx="253.17" cy="-90" fill="none" stroke="#000" rx="63.63" ry="18"/>
            <text x="253.17" y="-84.95" font-family="Times,serif" font-size="14" text-anchor="middle">:core:database</text>
        </g>
        <g stroke="red" stroke-width="2" class="edge">
            <path fill="none" d="M201.08 111.95c9.16 8.66 20.46 19.35 30.52 28.86"/>
            <path fill="red" d="m232.62 136.96 4.86 9.41-9.67-4.33z"/>
        </g>
        <g stroke="#000" class="edge">
            <path fill="none" d="m231.14 182.71-53.78 32.45"/>
            <path d="m179.18 218.15-10.37 2.17 6.76-8.16z"/>
        </g>
        <g class="node" transform="translate(4 256)">
            <ellipse cx="276.17" cy="-18" fill="none" stroke="#000" rx="55.45" ry="18"/>
            <text x="276.17" y="-12.95" font-family="Times,serif" font-size="14" text-anchor="middle">:core:model</text>
        </g>
        <g stroke="red" stroke-width="2" class="edge">
            <path fill="none" d="M262.86 184.3c2.45 7.46 5.38 16.38 8.12 24.73"/>
            <path fill="red" d="m273.81 206.43-.2 10.59-6.45-8.41z"/>
        </g>
    </g>
</svg>
