<svg xmlns="http://www.w3.org/2000/svg" width="482pt" height="260pt" viewBox="0 0 482.24 260">
    <g class="graph">
        <path fill="#fff" d="M0 260V0h482.24v260z"/>
        <g class="node" transform="translate(4 256)">
            <ellipse cx="243.17" cy="-234" fill="none" stroke="#000" rx="47.26" ry="18"/>
            <text x="243.17" y="-228.95" font-family="Times,serif" font-size="14" text-anchor="middle">:core:data</text>
        </g>
        <g class="node" transform="translate(4 256)">
            <ellipse cx="65.17" cy="-18" fill="none" stroke="#000" rx="65.17" ry="18"/>
            <text x="65.17" y="-12.95" font-family="Times,serif" font-size="14" text-anchor="middle">:core:common</text>
        </g>
        <g stroke="#000" class="edge">
            <path fill="none" d="M200.36 25.2C163.39 29.61 113.61 41.99 86.17 76c-30.32 37.57-27.61 97.19-22.54 132.37"/>
            <path d="m67.08 207.79-1.85 10.43-5.06-9.31z"/>
        </g>
        <g class="node" transform="translate(4 256)">
            <ellipse cx="237.17" cy="-90" fill="none" stroke="#000" rx="65.17" ry="18"/>
            <text x="237.17" y="-84.95" font-family="Times,serif" font-size="14" text-anchor="middle">:core:datastore</text>
        </g>
        <g stroke="#000" class="edge">
            <path fill="none" d="M246.43 40.41c-1.01 23.98-2.85 67.45-4.06 96.17"/>
            <path d="m245.88 136.53-3.92 9.85-3.08-10.14z"/>
        </g>
        <g class="node" transform="translate(4 256)">
            <ellipse cx="153.17" cy="-162" fill="none" stroke="#000" rx="62.1" ry="18"/>
            <text x="153.17" y="-156.95" font-family="Times,serif" font-size="14" text-anchor="middle">:core:network</text>
        </g>
        <g stroke="red" stroke-width="2" class="edge">
            <path fill="none" d="M227.2 38.54c-11.87 9.22-27.14 21.1-40.39 31.41"/>
            <path fill="red" d="m190.46 71.54-10.04 3.38 5.74-8.9z"/>
        </g>
        <g class="node" transform="translate(4 256)">
            <ellipse cx="331.17" cy="-162" fill="none" stroke="#000" rx="60.05" ry="18"/>
            <text x="331.17" y="-156.95" font-family="Times,serif" font-size="14" text-anchor="middle">:core:domain</text>
        </g>
        <g stroke="#000" class="edge">
            <path fill="none" d="M266.7 38.54c11.49 9.14 26.25 20.87 39.11 31.11"/>
            <path d="m307.95 66.87 5.64 8.97-10-3.49z"/>
        </g>
        <g class="node" transform="translate(4 256)">
            <ellipse cx="435.17" cy="-90" fill="none" stroke="#000" rx="39.07" ry="18"/>
            <text x="435.17" y="-84.95" font-family="Times,serif" font-size="14" text-anchor="middle">:core:ui</text>
        </g>
        <g stroke="#000" class="edge">
            <path fill="none" d="M292.37 27.91c34.59 5.96 81.38 19.13 111.8 48.09 16.83 16.02 25.72 41.13 30.32 60.59"/>
            <path d="m437.91 135.87-1.39 10.5-5.46-9.08z"/>
        </g>
        <g stroke="#000" class="edge">
            <path fill="none" d="M205.53 181.5c-26.17 10.66-61.96 25.22-90.3 36.76"/>
            <path d="m116.75 221.42-10.59.52 7.95-7.01z"/>
        </g>
        <g class="node" transform="translate(4 256)">
            <ellipse cx="236.17" cy="-18" fill="none" stroke="#000" rx="87.69" ry="18"/>
            <text x="236.17" y="-12.95" font-family="Times,serif" font-size="14" text-anchor="middle">:core:datastore-proto</text>
        </g>
        <g stroke="red" stroke-width="2" class="edge">
            <path fill="none" d="M240.92 184.3c-.1 7.29-.23 15.97-.34 24.16"/>
            <path fill="red" d="m244.1 206.92-3.64 9.95-3.36-10.05z"/>
        </g>
        <g class="node" transform="translate(4 256)">
            <ellipse cx="397.17" cy="-18" fill="none" stroke="#000" rx="55.45" ry="18"/>
            <text x="397.17" y="-12.95" font-family="Times,serif" font-size="14" text-anchor="middle">:core:model</text>
        </g>
        <g stroke="#000" class="edge">
            <path fill="none" d="M274.71 181.67c24.4 10.68 57.63 25.22 83.91 36.71"/>
            <path d="m359.89 215.12 7.76 7.22-10.56-.81z"/>
        </g>
        <g stroke="#000" class="edge">
            <path fill="none" d="M146.56 112.13c-15.13 24.41-43.04 69.44-60.88 98.23"/>
            <path d="m88.86 211.87-8.24 6.65 2.29-10.34z"/>
        </g>
        <g stroke="red" stroke-width="2" class="edge">
            <path fill="none" d="M176.65 111.24c10.74 8.94 24.26 20.21 36.15 30.12"/>
            <path fill="red" d="m213.74 137.58 5.44 9.09-9.93-3.71z"/>
        </g>
        <g stroke="#000" class="edge">
            <path fill="none" d="M153.68 112.46c-2.89 19.91-4.07 52.2 13.49 71.54 51.91 57.19 94.88 18.08 170 36 3.75.89 7.61 1.85 11.5 2.82"/>
            <path d="m349.31 219.38 8.82 5.87-10.56.91z"/>
        </g>
        <g stroke="#000" class="edge">
            <path fill="none" d="M336.42 112.34c.42 20.11-2.19 52.87-21.25 71.66-55.63 54.82-95.71 19.26-172 36-4.63 1.02-9.43 2.08-14.25 3.17"/>
            <path d="m129.7 226.58-10.52-1.21 8.98-5.62z"/>
        </g>
        <g stroke="#000" class="edge">
            <path fill="none" d="M313.37 111.24c-12.25 9.12-27.75 20.66-41.24 30.7"/>
            <path d="m274.5 144.54-10.11 3.17 5.93-8.78z"/>
        </g>
        <g stroke="#000" class="edge">
            <path fill="none" d="M358.77 110.88c14.69 9.89 33.74 22.72 49.61 33.4"/>
            <path d="m410.19 141.27 6.34 8.49-10.25-2.68z"/>
        </g>
        <g stroke="#000" class="edge">
            <path fill="none" d="M343.13 112.13c11.25 24.2 31.91 68.66 45.31 97.48"/>
            <path d="m391.5 207.89 1.04 10.55-7.39-7.59z"/>
        </g>
    </g>
</svg>
