<svg xmlns="http://www.w3.org/2000/svg" width="576" height="260pt" viewBox="0 0 432.41 260">
    <g class="graph">
        <path fill="#fff" d="M0 260V0h432.41v260z"/>
        <g class="node" transform="translate(4 256)">
            <ellipse cx="279.07" cy="-234" fill="none" stroke="#000" rx="52.38" ry="18"/>
            <text x="279.07" y="-228.95" font-family="Times,serif" font-size="14" text-anchor="middle">:navigation</text>
        </g>
        <g class="node" transform="translate(4 256)">
            <ellipse cx="39.07" cy="-18" fill="none" stroke="#000" rx="39.07" ry="18"/>
            <text x="39.07" y="-12.95" font-family="Times,serif" font-size="14" text-anchor="middle">:core:ui</text>
        </g>
        <g stroke="#000" class="edge">
            <path fill="none" d="M231.74 26.12C164.32 31.41 51.5 44.79 26.07 76c-30.92 37.95-11.91 98.77 3.41 133.79"/>
            <path d="m32.64 208.26.99 10.55-7.36-7.62z"/>
        </g>
        <g class="node" transform="translate(4 256)">
            <ellipse cx="190.07" cy="-18" fill="none" stroke="#000" rx="82.06" ry="18"/>
            <text x="190.07" y="-12.95" font-family="Times,serif" font-size="14" text-anchor="middle">:core:designsystem</text>
        </g>
        <g stroke="#000" class="edge">
            <path fill="none" d="M316.32 36.12c16.97 8.6 36.03 21.66 45.75 39.88 7.53 14.12 6.37 21.32 0 36-22.04 50.77-77.28 85.37-118.44 105.07"/>
            <path d="m245.15 220.22-10.55 1.02 7.61-7.38z"/>
        </g>
        <g class="node" transform="translate(4 256)">
            <ellipse cx="355.07" cy="-18" fill="none" stroke="#000" rx="65.17" ry="18"/>
            <text x="355.07" y="-12.95" font-family="Times,serif" font-size="14" text-anchor="middle">:core:common</text>
        </g>
        <g stroke="#000" class="edge">
            <path fill="none" d="M331.01 29.53c28.43 6.61 62.28 19.87 80.06 46.47 26.67 39.91 18.16 63.57 0 108-4.5 11.01-12.51 20.96-20.91 29.2"/>
            <path d="m392.62 215.69-9.76 4.13 5.05-9.31z"/>
        </g>
        <g class="node" transform="translate(4 256)">
            <ellipse cx="279.07" cy="-162" fill="none" stroke="#000" rx="70.29" ry="18"/>
            <text x="279.07" y="-156.95" font-family="Times,serif" font-size="14" text-anchor="middle">:feature:login:ui</text>
        </g>
        <g stroke="red" stroke-width="2" class="edge">
            <path fill="none" d="M283.07 40.3v24.16"/>
            <path fill="red" d="m286.57 62.87-3.5 10-3.5-10z"/>
        </g>
        <g class="node" transform="translate(4 256)">
            <ellipse cx="111.07" cy="-162" fill="none" stroke="#000" rx="79.5" ry="18"/>
            <text x="111.07" y="-156.95" font-family="Times,serif" font-size="14" text-anchor="middle">:feature:product:ui</text>
        </g>
        <g stroke="#000" class="edge">
            <path fill="none" d="M250.68 36.5c-25.03 10.42-60.03 25.01-88.21 36.75"/>
            <path d="m164.01 76.4-10.57.61 7.88-7.07z"/>
        </g>
        <g stroke="#000" class="edge">
            <path fill="none" d="M229.61 106.05c-31.81 8.22-71.99 21.6-103.54 41.95-26.09 16.83-49.58 43.67-64.85 63.47"/>
            <path d="m64.11 213.45-8.8 5.9 3.2-10.1z"/>
        </g>
        <g stroke="#000" class="edge">
            <path fill="none" d="M282.88 112.4c-.97 18.99-4.82 49.6-18.81 71.6-7.61 11.96-18.92 22.22-30.25 30.44"/>
            <path d="m235.88 217.28-10.24 2.73 6.3-8.52z"/>
        </g>
        <g stroke="#000" class="edge">
            <path fill="none" d="M303.96 111.68c10.72 9.58 23.17 22.45 31.11 36.32 10.64 18.6 16.71 42.09 20.09 60.26"/>
            <path d="m358.61 207.67-1.81 10.44-5.1-9.29z"/>
        </g>
        <g class="node" transform="translate(4 256)">
            <ellipse cx="191.07" cy="-90" fill="none" stroke="#000" rx="60.05" ry="18"/>
            <text x="191.07" y="-84.95" font-family="Times,serif" font-size="14" text-anchor="middle">:core:domain</text>
        </g>
        <g stroke="red" stroke-width="2" class="edge">
            <path fill="none" d="M262.21 111.59c-11.37 9.04-25.62 20.38-38.06 30.28"/>
            <path fill="red" d="m227.84 143.4-10 3.49 5.65-8.97z"/>
        </g>
        <g stroke="#000" class="edge">
            <path fill="none" d="M89.22 111.3c-12.39 9.21-26.23 21.87-34.15 36.7-9.84 18.41-12.67 41.91-13.13 60.14"/>
            <path d="m45.44 208-3.5 10-3.5-10z"/>
        </g>
        <g stroke="#000" class="edge">
            <path fill="none" d="M113.45 112.27c-.96 18.87-.05 49.38 12.62 71.73 6.86 12.1 17.71 22.41 28.74 30.62"/>
            <path d="m156.57 211.58 6.22 8.58-10.21-2.83z"/>
        </g>
        <g stroke="#000" class="edge">
            <path fill="none" d="M167.41 107.89c29.69 8.68 66.76 21.89 96.66 40.11 28.28 17.24 55.32 43.9 73.26 63.56"/>
            <path d="m339.85 209.12 4.05 9.79-9.27-5.13z"/>
        </g>
        <g stroke="#000" class="edge">
            <path fill="none" d="M134.43 111.95c10 8.74 22.37 19.56 33.32 29.15"/>
            <path d="m169.8 138.24 5.22 9.22-9.83-3.96z"/>
        </g>
        <g stroke="#000" class="edge">
            <path fill="none" d="M163.2 181.67c-24.22 11.16-57.6 26.53-83.02 38.24"/>
            <path d="m81.74 223.04-10.55 1.01 7.62-7.36z"/>
        </g>
        <g stroke="#000" class="edge">
            <path fill="none" d="M194.82 184.3c-.1 7.29-.23 15.97-.34 24.16"/>
            <path d="m197.98 208.43-3.65 9.95-3.35-10.05z"/>
        </g>
        <g stroke="red" stroke-width="2" class="edge">
            <path fill="none" d="M228.65 181.33c24.74 10.56 58.63 25.03 85.67 36.57"/>
            <path fill="red" d="m314.08 213.99 7.82 7.15-10.57-.71z"/>
        </g>
    </g>
</svg>
