<svg xmlns="http://www.w3.org/2000/svg" width="2806pt" height="404pt" viewBox="0 0 2805.94 404">
    <g class="graph">
        <path fill="#fff" d="M0 404V0h2805.94v404z"/>
        <g class="node" transform="translate(4 400)">
            <ellipse cx="701.94" cy="-378" fill="none" stroke="#000" rx="27" ry="18"/>
            <text x="701.94" y="-372.95" font-family="Times,serif" font-size="14" text-anchor="middle">:app</text>
        </g>
        <g class="node" transform="translate(4 400)">
            <ellipse cx="1959.94" cy="-306" fill="none" stroke="#000" rx="52.38" ry="18"/>
            <text x="1959.94" y="-300.95" font-family="Times,serif" font-size="14" text-anchor="middle">:navigation</text>
        </g>
        <g stroke="red" stroke-width="2" class="edge">
            <path fill="none" d="M733.09 24.51c155.93 8.68 938.58 52.23 1167.72 64.98"/>
            <path fill="red" d="m1899.45 85.91 9.79 4.05-10.18 2.94z"/>
        </g>
        <g class="node" transform="translate(4 400)">
            <ellipse cx="1377.94" cy="-18" fill="none" stroke="#000" rx="65.17" ry="18"/>
            <text x="1377.94" y="-12.95" font-family="Times,serif" font-size="14" text-anchor="middle">:core:common</text>
        </g>
        <g stroke="#000" class="edge">
            <path fill="none" d="M733.21 23.36C978.89 26.82 2801.94 56.15 2801.94 165v74c0 51.44-27.87 66.24-74 89-57.15 28.19-992.98 46.8-1269.59 51.71"/>
            <path d="m1458.42 383.21-10.06-3.33 9.94-3.67z"/>
        </g>
        <g class="node" transform="translate(4 400)">
            <ellipse cx="177.94" cy="-90" fill="none" stroke="#000" rx="65.17" ry="18"/>
            <text x="177.94" y="-84.95" font-family="Times,serif" font-size="14" text-anchor="middle">:core:datastore</text>
        </g>
        <g stroke="#000" class="edge">
            <path fill="none" d="M678.57 23.41C560.54 25.81 97.19 41.95 10.94 148c-25.17 30.95 28.29 103.58 33 108 20.63 19.37 49.08 31.88 74.8 39.86"/>
            <path d="m119.48 292.43 8.63 6.15-10.58.57z"/>
        </g>
        <g class="node" transform="translate(4 400)">
            <ellipse cx="1605.94" cy="-90" fill="none" stroke="#000" rx="39.07" ry="18"/>
            <text x="1605.94" y="-84.95" font-family="Times,serif" font-size="14" text-anchor="middle">:core:ui</text>
        </g>
        <g stroke="#000" class="edge">
            <path fill="none" d="M732.83 25.2c120.54 10.18 611.28 55.15 748.11 122.8 20.85 10.31 19.52 21.86 38 36 24.4 18.67 39.59 12.19 59 36 14.2 17.41 22.36 41.63 26.88 60.41"/>
            <path d="m1608.22 279.57-1.3 10.52-5.54-9.03z"/>
        </g>
        <g class="node" transform="translate(4 400)">
            <ellipse cx="1075.94" cy="-234" fill="none" stroke="#000" rx="78.48" ry="18"/>
            <text x="1075.94" y="-228.95" font-family="Times,serif" font-size="14" text-anchor="middle">:feature:login:data</text>
        </g>
        <g stroke="#000" class="edge">
            <path fill="none" d="M729.05 31.78c59.52 22.59 219.1 83.18 300.96 114.26"/>
            <path d="m1031.02 142.68 8.11 6.83-10.59-.28z"/>
        </g>
        <g class="node" transform="translate(4 400)">
            <ellipse cx="701.94" cy="-234" fill="none" stroke="#000" rx="82.57" ry="18"/>
            <text x="701.94" y="-228.95" font-family="Times,serif" font-size="14" text-anchor="middle">:feature:splash:data</text>
        </g>
        <g stroke="#000" class="edge">
            <path fill="none" d="M705.94 40.41v96.17"/>
            <path d="m709.44 136.38-3.5 10-3.5-10z"/>
        </g>
        <g class="node" transform="translate(4 400)">
            <ellipse cx="363.94" cy="-234" fill="none" stroke="#000" rx="72.34" ry="18"/>
            <text x="363.94" y="-228.95" font-family="Times,serif" font-size="14" text-anchor="middle">:feature:pos:data</text>
        </g>
        <g stroke="#000" class="edge">
            <path fill="none" d="M683.5 32.43c-54.74 22.99-196 82.34-269.54 113.23"/>
            <path d="m415.6 148.77-10.58.65 7.86-7.1z"/>
        </g>
        <g class="node" transform="translate(4 400)">
            <ellipse cx="527.94" cy="-234" fill="none" stroke="#000" rx="73.36" ry="18"/>
            <text x="527.94" y="-228.95" font-family="Times,serif" font-size="14" text-anchor="middle">:feature:cart:data</text>
        </g>
        <g stroke="#000" class="edge">
            <path fill="none" d="M689.26 36.62c-29.57 24.12-91.48 74.65-128.21 104.62"/>
            <path d="m563.43 143.82-9.96 3.61 5.53-9.03z"/>
        </g>
        <g class="node" transform="translate(4 400)">
            <ellipse cx="144.94" cy="-234" fill="none" stroke="#000" rx="128.63" ry="18"/>
            <text x="144.94" y="-228.95" font-family="Times,serif" font-size="14" text-anchor="middle">:feature:transaction-history:data</text>
        </g>
        <g stroke="#000" class="edge">
            <path fill="none" d="M680.67 29.21C640.77 39.03 560.72 58.8 492.94 76c-95.07 24.13-204.74 52.61-274.2 70.74"/>
            <path d="m219.97 150.04-10.56-.87 8.79-5.91z"/>
        </g>
        <g stroke="#000" class="edge">
            <path fill="none" d="M2016.46 95.67c201.32 4.06 901.84 32.54 684.48 232.33-45.9 42.19-966.95 50.95-1242.06 52.63"/>
            <path d="m1458.96 384.13-10.02-3.44 9.98-3.56z"/>
        </g>
        <g stroke="#000" class="edge">
            <path fill="none" d="M1961.47 112.3c-3.86 20.38-13.34 53.72-35.53 71.7-64.42 52.17-108.41-.16-183 36-22.12 10.73-21.96 21.75-42 36-17.81 12.66-38.83 25.06-56.18 34.67"/>
            <path d="m1646.8 293.54-10.45 1.73 7.1-7.87z"/>
        </g>
        <g class="node" transform="translate(4 400)">
            <ellipse cx="2545.94" cy="-162" fill="none" stroke="#000" rx="72.34" ry="18"/>
            <text x="2545.94" y="-156.95" font-family="Times,serif" font-size="14" text-anchor="middle">:feature:home:ui</text>
        </g>
        <g stroke="#000" class="edge">
            <path fill="none" d="M2016.36 96.37c78.48 3.25 230.46 14.28 353.58 51.63 52.83 16.03 109.18 46.28 144.48 67.03"/>
            <path d="m2516.13 211.98 6.8 8.12-10.38-2.11z"/>
        </g>
        <g class="node" transform="translate(4 400)">
            <ellipse cx="2082.94" cy="-234" fill="none" stroke="#000" rx="74.38" ry="18"/>
            <text x="2082.94" y="-228.95" font-family="Times,serif" font-size="14" text-anchor="middle">:feature:splash:ui</text>
        </g>
        <g stroke="#000" class="edge">
            <path fill="none" d="M1990.33 110.02c17.11 9.74 39.68 22.58 58.7 33.4"/>
            <path d="m2050.61 140.3 6.96 7.99-10.42-1.91z"/>
        </g>
        <g class="node" transform="translate(4 400)">
            <ellipse cx="1840.94" cy="-162" fill="none" stroke="#000" rx="93.32" ry="18"/>
            <text x="1840.94" y="-156.95" font-family="Times,serif" font-size="14" text-anchor="middle">:feature:onboarding:ui</text>
        </g>
        <g stroke="#000" class="edge">
            <path fill="none" d="M1967.87 112.38c3.31 19.25 5.49 50.36-8.93 71.62-10.91 16.08-28.01 27.39-45.69 35.3"/>
            <path d="m1914.8 222.44-10.58.56 7.93-7.03z"/>
        </g>
        <g class="node" transform="translate(4 400)">
            <ellipse cx="2286.94" cy="-234" fill="none" stroke="#000" rx="70.29" ry="18"/>
            <text x="2286.94" y="-228.95" font-family="Times,serif" font-size="14" text-anchor="middle">:feature:login:ui</text>
        </g>
        <g stroke="#000" class="edge">
            <path fill="none" d="M2007.7 104.37c56.43 12.08 154.98 33.17 219.67 47.02"/>
            <path d="m2227.72 147.89 9.04 5.51-10.51 1.33z"/>
        </g>
        <g class="node" transform="translate(4 400)">
            <ellipse cx="1403.94" cy="-234" fill="none" stroke="#000" rx="64.15" ry="18"/>
            <text x="1403.94" y="-228.95" font-family="Times,serif" font-size="14" text-anchor="middle">:feature:pos:ui</text>
        </g>
        <g stroke="red" stroke-width="2" class="edge">
            <path fill="none" d="M1914.48 100.34c-82.21 9.01-252.15 28.15-395.54 47.66-14.62 1.99-30.31 4.29-45.14 6.54"/>
            <path fill="red" d="m1476.06 157.74-10.42-1.95 9.36-4.97z"/>
        </g>
        <g class="node" transform="translate(4 400)">
            <ellipse cx="1643.94" cy="-234" fill="none" stroke="#000" rx="120.45" ry="18"/>
            <text x="1643.94" y="-228.95" font-family="Times,serif" font-size="14" text-anchor="middle">:feature:transaction-history:ui</text>
        </g>
        <g stroke="#000" class="edge">
            <path fill="none" d="M1920.66 104.59c-50.36 11.15-134.47 29.78-195.99 43.41"/>
            <path d="m1725.46 151.41-10.52-1.25 9.01-5.58z"/>
        </g>
        <g class="node" transform="translate(4 400)">
            <ellipse cx="1847.94" cy="-234" fill="none" stroke="#000" rx="65.17" ry="18"/>
            <text x="1847.94" y="-228.95" font-family="Times,serif" font-size="14" text-anchor="middle">:feature:cart:ui</text>
        </g>
        <g stroke="#000" class="edge">
            <path fill="none" d="m1939.36 110.36-52.51 32.82"/>
            <path d="m1888.86 146.05-10.34 2.34 6.63-8.27z"/>
        </g>
        <g stroke="#000" class="edge">
            <path fill="none" d="M236.86 320.08c19.55 2.94 41.75 5.95 62.08 7.92 376.54 36.49 829.29 48.35 1006.56 51.76"/>
            <path d="m1305.33 376.26 9.93 3.69-10.06 3.31z"/>
        </g>
        <g class="node" transform="translate(4 400)">
            <ellipse cx="388.94" cy="-18" fill="none" stroke="#000" rx="55.45" ry="18"/>
            <text x="388.94" y="-12.95" font-family="Times,serif" font-size="14" text-anchor="middle">:core:model</text>
        </g>
        <g stroke="#000" class="edge">
            <path fill="none" d="M222.62 324.5 344.71 365"/>
            <path d="m345.39 361.54 8.39 6.47-10.59.17z"/>
        </g>
        <g class="node" transform="translate(4 400)">
            <ellipse cx="177.94" cy="-18" fill="none" stroke="#000" rx="87.69" ry="18"/>
            <text x="177.94" y="-12.95" font-family="Times,serif" font-size="14" text-anchor="middle">:core:datastore-proto</text>
        </g>
        <g stroke="#000" class="edge">
            <path fill="none" d="M181.94 328.3v24.16"/>
            <path d="m185.44 352.38-3.5 10-3.5-10z"/>
        </g>
        <g stroke="#000" class="edge">
            <path fill="none" d="M1103.14 183.44c53.49 37.9 185.57 131.5 246.75 174.85"/>
            <path d="m1351.71 355.29 6.13 8.63-10.18-2.92z"/>
        </g>
        <g stroke="#000" class="edge">
            <path fill="none" d="M1006.12 172.5c-93.07 7.58-257.76 23.13-397.18 47.5-67.96 11.88-83.55 21.49-151 36-72.07 15.5-155.21 31.17-211.25 41.4"/>
            <path d="M247.46 300.82 237 299.17l9.21-5.24z"/>
        </g>
        <g stroke="#000" class="edge">
            <path fill="none" d="M1156.27 170.68c106.29 6.1 292.69 20.57 353.67 49.32 21.04 9.92 20.71 20.44 38 36 11.26 10.14 23.95 21.06 34.89 30.35"/>
            <path d="m1585.01 283.6 5.38 9.13-9.9-3.78z"/>
        </g>
        <g class="node" transform="translate(4 400)">
            <ellipse cx="2326.94" cy="-162" fill="none" stroke="#000" rx="91.27" ry="18"/>
            <text x="2326.94" y="-156.95" font-family="Times,serif" font-size="14" text-anchor="middle">:feature:login:domain</text>
        </g>
        <g stroke="#000" class="edge">
            <path fill="none" d="M1153.84 172.41c50.89 3.61 120.07 8.28 181.1 11.59 381.11 20.7 477.62 4.64 858 36 17.45 1.44 36.09 3.43 53.84 5.54"/>
            <path d="m2246.99 222.04 9.51 4.68-10.35 2.27z"/>
        </g>
        <g class="node" transform="translate(4 400)">
            <ellipse cx="305.94" cy="-162" fill="none" stroke="#000" rx="62.1" ry="18"/>
            <text x="305.94" y="-156.95" font-family="Times,serif" font-size="14" text-anchor="middle">:core:network</text>
        </g>
        <g stroke="#000" class="edge">
            <path fill="none" d="M1008.19 173.52c-147.31 13.39-482.25 43.84-628.15 57.11"/>
            <path d="m380.39 234.11-10.27-2.58 9.64-4.39z"/>
        </g>
        <g stroke="#000" class="edge">
            <path fill="none" d="M658.29 181.12c-18.8 8.16-38.48 20.56-49.35 38.88-8.16 13.76-9.98 23.49 0 36 85.71 107.43 518.2 123.14 696.25 124.99"/>
            <path d="m1305.06 377.49 9.97 3.59-10.03 3.41z"/>
        </g>
        <g stroke="#000" class="edge">
            <path fill="none" d="M656.14 180.75c-63.75 17.58-177.64 48.9-275.2 75.25-47.85 12.92-102.24 27.39-142.05 37.95"/>
            <path d="m239.83 297.32-10.56-.83 8.77-5.94z"/>
        </g>
        <g stroke="#000" class="edge">
            <path fill="none" d="M784.57 171.74c192.29 11.68 671.77 41.41 687.37 48.26 21.3 9.35 19.1 22.43 38 36 19.39 13.93 42.9 26.57 62.25 36.02"/>
            <path d="m1573.58 288.8 7.52 7.47-10.54-1.15z"/>
        </g>
        <g class="node" transform="translate(4 400)">
            <ellipse cx="2084.94" cy="-162" fill="none" stroke="#000" rx="95.37" ry="18"/>
            <text x="2084.94" y="-156.95" font-family="Times,serif" font-size="14" text-anchor="middle">:feature:splash:domain</text>
        </g>
        <g stroke="#000" class="edge">
            <path fill="none" d="M784.18 172.09c57.69 3.64 138.09 8.48 208.76 11.91 423.8 20.55 531 2.75 954 36 17.75 1.4 36.7 3.34 54.78 5.42"/>
            <path d="m2002.12 221.95 9.52 4.64-10.34 2.31z"/>
        </g>
        <g stroke="#000" class="edge">
            <path fill="none" d="M644.59 178.43a7856 7856 0 0 1-30.65 5.57c-83.03 14.91-178.92 31.53-240.44 42.11"/>
            <path d="m374.36 229.51-10.45-1.75 9.26-5.14z"/>
        </g>
        <g stroke="#000" class="edge">
            <path fill="none" d="M321.38 180.13c-32.86 10.33-72.7 25.34-82.44 39.87-44.42 66.28 83.11 104.68 92 108 90.43 33.75 747.75 47.9 974.41 51.8"/>
            <path d="m1305.33 376.3 9.94 3.67-10.06 3.33z"/>
        </g>
        <g stroke="#000" class="edge">
            <path fill="none" d="M316.46 179c-57.71 13.69-143.88 34.97-148.52 41-13.32 17.31-7.95 42.2-.31 61.27"/>
            <path d="m170.79 279.77.86 10.56-7.25-7.72z"/>
        </g>
        <g stroke="#000" class="edge">
            <path fill="none" d="M419.79 178.99c9.96 1.95 20.34 3.74 30.15 5.01 302.35 39.06 389.42-38.67 685 36 36.24 9.15 40.15 25.41 76 36 121.91 36.01 272.03 47.61 348.72 51.3"/>
            <path d="m1559.53 303.79 9.83 3.95-10.15 3.04z"/>
        </g>
        <g class="node" transform="translate(4 400)">
            <ellipse cx="698.94" cy="-162" fill="none" stroke="#000" rx="85.13" ry="18"/>
            <text x="698.94" y="-156.95" font-family="Times,serif" font-size="14" text-anchor="middle">:feature:pos:domain</text>
        </g>
        <g stroke="#000" class="edge">
            <path fill="none" d="M422.14 178.32c57.38 12 148.17 30.97 210.9 44.08"/>
            <path d="m633.47 218.91 9.08 5.47-10.51 1.38z"/>
        </g>
        <g class="node" transform="translate(4 400)">
            <ellipse cx="438.94" cy="-90" fill="none" stroke="#000" rx="63.63" ry="18"/>
            <text x="438.94" y="-84.95" font-family="Times,serif" font-size="14" text-anchor="middle">:core:database</text>
        </g>
        <g stroke="#000" class="edge">
            <path fill="none" d="M376.99 184.13c12.83 24.31 36.47 69.05 51.68 97.86"/>
            <path d="m431.58 280 1.57 10.47-7.76-7.21z"/>
        </g>
        <g stroke="#000" class="edge">
            <path fill="none" d="M353.9 183.95c-6.84 8.25-15.21 18.35-22.8 27.51"/>
            <path d="m333.89 213.58-9.07 5.47 3.68-9.94z"/>
        </g>
        <g stroke="#000" class="edge">
            <path fill="none" d="M538.94 184.28c15.01 34.46 53.86 111.22 114 143.72 56.36 30.47 477.52 45.85 652.8 50.98"/>
            <path d="m1305.77 375.48 9.89 3.79-10.09 3.21z"/>
        </g>
        <g stroke="#000" class="edge">
            <path fill="none" d="M477.52 178.41c-9.52 1.92-19.33 3.85-28.58 5.59-93.06 17.5-131.08-16.33-210 36-22.07 14.63-37.36 41.04-46.52 61.3"/>
            <path d="m195.68 282.58-7.12 7.84.68-10.57z"/>
        </g>
        <g stroke="#000" class="edge">
            <path fill="none" d="M583.79 179.04c9.96 1.95 20.34 3.73 30.15 4.96 173.7 21.84 617.7-8.58 787 36 34.21 9.01 38.66 21.64 71 36 32.09 14.25 69.31 28.41 97 38.51"/>
            <path d="m1569.79 291.09 8.21 6.7-10.59-.12z"/>
        </g>
        <g stroke="#000" class="edge">
            <path fill="none" d="M521.2 184.13c-15.3 24.41-43.52 69.44-61.57 98.23"/>
            <path d="m462.79 283.91-8.27 6.62 2.34-10.33z"/>
        </g>
        <g class="node" transform="translate(4 400)">
            <ellipse cx="1301.94" cy="-162" fill="none" stroke="#000" rx="86.15" ry="18"/>
            <text x="1301.94" y="-156.95" font-family="Times,serif" font-size="14" text-anchor="middle">:feature:cart:domain</text>
        </g>
        <g stroke="#000" class="edge">
            <path fill="none" d="M584.24 178.98c9.83 1.92 20.05 3.71 29.7 5.02 244.51 33.12 308.34 12.91 554 36 18.11 1.7 37.52 3.88 55.89 6.1"/>
            <path d="m1224.11 222.6 9.5 4.7-10.35 2.25z"/>
        </g>
        <g stroke="#000" class="edge">
            <path fill="none" d="M488.08 180.83c-36.34 11.46-88.07 27.77-126.43 39.86"/>
            <path d="m362.75 224.02-10.59-.33 8.48-6.35z"/>
        </g>
        <g stroke="#000" class="edge">
            <path fill="none" d="M91.69 182.56c-18.5 8.04-37 19.96-47.75 37.44-29.24 47.52 13.59 84.09 64 108 54.23 25.72 931.12 45.9 1197.72 51.47"/>
            <path d="m1305.7 375.97 9.92 3.71-10.07 3.29z"/>
        </g>
        <g stroke="#000" class="edge">
            <path fill="none" d="M98.76 182.95c-17.33 8.19-34.88 20.11-44.82 37.05-8.1 13.8-8.89 22.7 0 36 13.9 20.8 37.64 33.45 60.93 41.14"/>
            <path d="m115.83 293.77 8.58 6.22-10.59.49z"/>
        </g>
        <g stroke="#000" class="edge">
            <path fill="none" d="M160.19 184.23c15.03 21.32 43.87 56.64 78.75 71.77 122.83 53.27 1087.37 53.85 1320.43 53.2"/>
            <path d="m1559.02 305.7 10.01 3.47-9.99 3.53z"/>
        </g>
        <g stroke="#000" class="edge">
            <path fill="none" d="M124.97 184.04c-23.39 18.67-52.78 49.01-33.03 71.96 17.95 20.87 181.83 38.42 279.19 47.13"/>
            <path d="m371.21 299.62 9.65 4.37-10.27 2.6z"/>
        </g>
        <g class="node" transform="translate(4 400)">
            <ellipse cx="980.94" cy="-162" fill="none" stroke="#000" rx="141.43" ry="18"/>
            <text x="980.94" y="-156.95" font-family="Times,serif" font-size="14" text-anchor="middle">:feature:transaction-history:domain</text>
        </g>
        <g stroke="#000" class="edge">
            <path fill="none" d="M240.54 178.96c15.47 1.83 31.38 3.59 46.4 5.04 226.17 21.9 283.5 17.77 510 36 21.14 1.7 43.61 3.63 65.38 5.56"/>
            <path d="m862.47 222.06 9.65 4.37-10.27 2.6z"/>
        </g>
        <g stroke="#000" class="edge">
            <path fill="none" d="M187.09 183.59c23.66 10.28 54.13 23.53 78.8 34.26"/>
            <path d="m267.26 214.63 7.78 7.2-10.57-.78z"/>
        </g>
        <g stroke="#000" class="edge">
            <path fill="none" d="M2508.87 253.25c-24.63 9.38-56.09 22.84-81.93 38.75-21.22 13.07-19.81 26.87-43 36-85.2 33.53-706.25 47.73-925.56 51.74"/>
            <path d="m1458.57 383.24-10.06-3.32 9.94-3.68z"/>
        </g>
        <g stroke="#000" class="edge">
            <path fill="none" d="M2490.12 248.47c-18.89 2.74-39.88 5.53-59.18 7.53-291.04 30.14-642.01 45.98-770.64 51.11"/>
            <path d="m1660.56 310.6-10.13-3.1 9.85-3.89z"/>
        </g>
        <g class="node" transform="translate(4 400)">
            <ellipse cx="2524.94" cy="-90" fill="none" stroke="#000" rx="93.32" ry="18"/>
            <text x="2524.94" y="-84.95" font-family="Times,serif" font-size="14" text-anchor="middle">:feature:home:domain</text>
        </g>
        <g stroke="#000" class="edge">
            <path fill="none" d="M2544.75 256.3c-2.24 7.46-4.91 16.38-7.42 24.73"/>
            <path d="m2540.73 281.87-6.22 8.58-.48-10.59z"/>
        </g>
        <g stroke="#000" class="edge">
            <path fill="none" d="M2149.16 176.18c20.02 2.76 42.31 5.63 62.78 7.82 51.2 5.47 427.03-1.8 462 36 19 20.53-1.89 96.19-16 108-46.12 38.6-930.95 49.84-1199.42 52.37"/>
            <path d="m1458.88 383.87-10.03-3.41 9.97-3.59z"/>
        </g>
        <g stroke="#000" class="edge">
            <path fill="none" d="M2052.02 182.16c-20.37 9.57-46.11 22.91-67.08 37.84-18.95 13.49-17.13 25.73-38 36-49.64 24.42-206.29 41.42-287.34 48.83"/>
            <path d="m1660 308.31-10.28-2.59 9.65-4.38z"/>
        </g>
        <g stroke="#000" class="edge">
            <path fill="none" d="M2087.43 184.3c.21 7.29.46 15.97.69 24.16"/>
            <path d="m2091.62 208.29-3.21 10.09-3.79-9.89z"/>
        </g>
        <g stroke="#000" class="edge">
            <path fill="none" d="M1816.1 255.58c-35.93 19.98-99.74 53.26-158.16 72.42-68.1 22.34-148.91 36.49-205.43 44.5"/>
            <path d="m1453.07 375.95-10.38-2.09 9.42-4.84z"/>
        </g>
        <g stroke="#000" class="edge">
            <path fill="none" d="M1795.68 253.67c-42.2 12.57-102.37 30.49-142.67 42.5"/>
            <path d="m1654.23 299.46-10.58-.5 8.59-6.21z"/>
        </g>
        <g stroke="#000" class="edge">
            <path fill="none" d="M2358.79 171.15c108.61 7.35 311.57 24.23 333.15 48.85 16.51 18.84 2.86 94.88-12 108-45.94 40.56-949.75 50.45-1221.42 52.51"/>
            <path d="m1458.75 384.01-10.03-3.42 9.98-3.58z"/>
        </g>
        <g stroke="#000" class="edge">
            <path fill="none" d="M2271.6 183.78c-11.83 10.34-27.23 23.93-40.66 36.22-17.17 15.7-16.8 26.42-38 36-94.43 42.68-408.35 51-532.16 52.61"/>
            <path d="m1660.96 312.11-10.04-3.38 9.96-3.62z"/>
        </g>
        <g stroke="#000" class="edge">
            <path fill="none" d="M2300.83 184.3c4.45 7.8 9.82 17.19 14.78 25.87"/>
            <path d="m2318.49 208.16 1.92 10.42-8-6.94z"/>
        </g>
        <g stroke="#000" class="edge">
            <path fill="none" d="M1406.94 184.43c-1.11 17.97-3.15 46.78-6 71.57-3.82 33.17-9.81 71.05-14.04 96.34"/>
            <path d="m1390.35 352.9-5.12 9.27-1.78-10.44z"/>
        </g>
        <g stroke="#000" class="edge">
            <path fill="none" d="M1457.26 177.88c28.62 8.11 64.14 21.43 90.68 42.12 21.18 16.51 38 42.24 48.75 61.8"/>
            <path d="m1599.75 280.11 1.57 10.48-7.76-7.22z"/>
        </g>
        <g stroke="red" stroke-width="2" class="edge">
            <path fill="none" d="M1346.69 171.71c-132.16 10.26-440.54 34.81-544.75 48.29-8.18 1.06-16.71 2.3-25.19 3.63"/>
            <path fill="red" d="m779.09 226.8-10.43-1.86 9.31-5.05z"/>
        </g>
        <g stroke="#000" class="edge">
            <path fill="none" d="M1346.34 171.61c-143.24 10.87-488.37 37.96-511.4 48.39-21.19 9.6-17.92 24.25-38 36-111.83 65.4-261.43 100.03-343.61 115.24"/>
            <path d="m454.15 374.65-10.47-1.66 9.22-5.23z"/>
        </g>
        <g stroke="#000" class="edge">
            <path fill="none" d="M1733.15 179.07c14.91 1.85 30.28 3.58 44.79 4.93 72.35 6.72 603.05-16.78 653 36 11 11.62 10.48 23.91 0 36-63.8 73.59-743.93 111.12-973.68 121.76"/>
            <path d="m1457.68 381.25-10.15-3.04 9.83-3.96z"/>
        </g>
        <g stroke="#000" class="edge">
            <path fill="none" d="M1643.28 184.41c-6.45 24.09-18.15 67.84-25.84 96.56"/>
            <path d="m1620.88 281.67-5.97 8.76-.8-10.57z"/>
        </g>
        <g stroke="#000" class="edge">
            <path fill="none" d="M1551.89 177.14c-118.88 12.55-321.25 33.92-449.31 47.44"/>
            <path d="m1103 228.05-10.31-2.43 9.58-4.53z"/>
        </g>
        <g stroke="#000" class="edge">
            <path fill="none" d="M1910.33 174.28c28.24 3.33 62.65 7.1 93.61 9.72 284.9 24.09 824.84-62.42 627 144-40.67 42.43-907.08 51-1172.44 52.64"/>
            <path d="m1458.6 384.14-10.02-3.44 9.98-3.56z"/>
        </g>
        <g stroke="#000" class="edge">
            <path fill="none" d="M1806.51 179.24c-28.88 8.9-66.37 22.56-96.57 40.76-29.65 17.87-58.66 45.07-77.72 64.7"/>
            <path d="m1634.91 286.95-9.43 4.82 4.37-9.65z"/>
        </g>
        <g stroke="#000" class="edge">
            <path fill="none" d="M1804.49 178.59c-9.11 1.99-18.6 3.9-27.55 5.41-131.37 22.21-284.98 37.53-380.15 45.79"/>
            <path d="m1397.25 233.26-10.26-2.63 9.67-4.35z"/>
        </g>
        <g stroke="#000" class="edge">
            <path fill="none" d="M2034.88 253.17c-72.64 18.74-205.91 52.03-320.94 74.83-90.52 17.94-195.86 33.94-263.19 43.55"/>
            <path d="m1451.34 375-10.39-2.06 9.41-4.87z"/>
        </g>
        <g stroke="#000" class="edge">
            <path fill="none" d="M2017.43 250.28c-12.49 1.94-25.37 3.91-37.49 5.72-115.36 17.26-251.13 36.41-321.78 46.29"/>
            <path d="m1658.87 305.72-10.39-2.08 9.42-4.85z"/>
        </g>
        <g stroke="#000" class="edge">
            <path fill="none" d="M2266.02 250.94c-99.03 18.01-293.85 52.59-460.08 77.06-123.85 18.23-268.65 35.45-352.97 45.08"/>
            <path d="m1453.57 376.53-10.33-2.34 9.54-4.61z"/>
        </g>
        <g stroke="#000" class="edge">
            <path fill="none" d="M2264.11 250.59c-12.65 1.97-25.8 3.88-38.17 5.41-209.72 25.96-461.18 43.34-566.16 49.98"/>
            <path d="m1660.32 309.45-10.2-2.86 9.76-4.12z"/>
        </g>
        <g stroke="#000" class="edge">
            <path fill="none" d="M756.64 252.29c74.24 18.17 212.53 51.29 331.3 75.71 78.03 16.04 168.27 31.91 227.97 42.04"/>
            <path d="m1316.29 366.56 9.28 5.12-10.45 1.78z"/>
        </g>
        <g stroke="#000" class="edge">
            <path fill="none" d="M772.38 248.74c20.15 2.61 42.21 5.26 62.56 7.26 273.04 26.89 601.54 44.51 724.93 50.62"/>
            <path d="m1559.84 303.11 9.81 3.99-10.16 3z"/>
        </g>
        <g stroke="red" stroke-width="2" class="edge">
            <path fill="none" d="M651.88 252.75c-44.13 11.88-107.79 29.02-153.23 41.25"/>
            <path fill="red" d="m501.3 296.91-10.57-.78 8.75-5.98z"/>
        </g>
        <g stroke="#000" class="edge">
            <path fill="none" d="M490.17 322.51c10.1 2.12 20.75 4.1 30.77 5.49 287.52 39.94 633.22 49.78 784.19 52.21"/>
            <path d="m1305.07 376.71 9.94 3.65-10.05 3.35z"/>
        </g>
        <g stroke="red" stroke-width="2" class="edge">
            <path fill="none" d="M430.84 327.95c-5.78 8.08-12.81 17.93-19.25 26.94"/>
            <path fill="red" d="m415.35 355.64-8.66 6.11 2.97-10.17z"/>
        </g>
        <g stroke="#000" class="edge">
            <path fill="none" d="M1016.98 255.93c37.71 19.4 102.58 51.21 160.96 72.07 46.62 16.65 100.93 30.51 141.79 39.87"/>
            <path d="m1320.42 364.44 8.99 5.62-10.53 1.2z"/>
        </g>
        <g stroke="#000" class="edge">
            <path fill="none" d="M1088.5 250.6c136.31 15.27 370.52 41.5 472.08 52.87"/>
            <path d="m1560.95 299.99 9.55 4.59-10.33 2.37z"/>
        </g>
        <g stroke="#000" class="edge">
            <path fill="none" d="M888.04 251.51c-108.55 14.02-281.74 36.39-376.91 48.68"/>
            <path d="m511.78 303.64-10.36-2.19 9.46-4.75z"/>
        </g>
        <g stroke="#000" class="edge">
            <path fill="none" d="M1315.11 256.13c13.01 24.31 36.95 69.05 52.37 97.86"/>
            <path d="m1370.39 352.01 1.64 10.47-7.81-7.17z"/>
        </g>
        <g stroke="#000" class="edge">
            <path fill="none" d="M1362.41 252c58.35 13.44 148.29 34.15 202.18 46.56"/>
            <path d="m1565.08 295.08 8.96 5.65-10.53 1.17z"/>
        </g>
        <g stroke="#000" class="edge">
            <path fill="none" d="M1230.21 246.9c-29.69 3-64.07 6.35-95.27 9.1-225.8 19.87-493.44 39.16-619.48 47.99"/>
            <path d="m515.8 307.47-10.22-2.79 9.73-4.19z"/>
        </g>
        <g stroke="#000" class="edge">
            <path fill="none" d="M316.07 256.36c8.48 21.1 25.97 55.85 53.87 71.64 80.61 45.62 713.41 52.05 935.37 52.89"/>
            <path d="m1305.01 377.39 9.99 3.54-10.01 3.46z"/>
        </g>
        <g stroke="#000" class="edge">
            <path fill="none" d="M281.85 254.36c-18.05 9.87-41.73 22.82-61.51 33.64"/>
            <path d="m222.19 290.98-10.46 1.73 7.1-7.87z"/>
        </g>
        <g stroke="#000" class="edge">
            <path fill="none" d="M312.44 256.15c3.32 18.77 10.49 49.19 24.5 71.85 6.79 10.98 16.41 21.22 25.77 29.7"/>
            <path d="m364.71 354.81 5.29 9.18-9.86-3.88z"/>
        </g>
    </g>
</svg>
