<svg xmlns="http://www.w3.org/2000/svg" width="338pt" height="260pt" viewBox="0 0 338.44 260">
    <g class="graph">
        <path fill="#fff" d="M0 260V0h338.44v260z"/>
        <g class="node" transform="translate(4 256)">
            <ellipse cx="219.17" cy="-234" fill="none" stroke="#000" rx="64.15" ry="18"/>
            <text x="219.17" y="-228.95" font-family="Times,serif" font-size="14" text-anchor="middle">:feature:pos:ui</text>
        </g>
        <g class="node" transform="translate(4 256)">
            <ellipse cx="159.17" cy="-162" fill="none" stroke="#000" rx="85.13" ry="18"/>
            <text x="159.17" y="-156.95" font-family="Times,serif" font-size="14" text-anchor="middle">:feature:pos:domain</text>
        </g>
        <g stroke="red" stroke-width="2" class="edge">
            <path fill="none" d="M208.65 39.95c-7.15 8.34-15.92 18.56-23.84 27.8"/>
            <path fill="red" d="m188.7 68.6-9.17 5.31 3.85-9.87z"/>
        </g>
        <g class="node" transform="translate(4 256)">
            <ellipse cx="274.17" cy="-18" fill="none" stroke="#000" rx="55.45" ry="18"/>
            <text x="274.17" y="-12.95" font-family="Times,serif" font-size="14" text-anchor="middle">:core:model</text>
        </g>
        <g stroke="#000" class="edge">
            <path fill="none" d="M244.76 39.09c26.55 21.38 69.99 61.96 85.41 108.91 4.99 15.2 6.05 21.19 0 36-4.53 11.1-12.64 21.13-21.12 29.4"/>
            <path d="m311.46 215.94-9.77 4.11 5.08-9.3z"/>
        </g>
        <g class="node" transform="translate(4 256)">
            <ellipse cx="278.17" cy="-90" fill="none" stroke="#000" rx="39.07" ry="18"/>
            <text x="278.17" y="-84.95" font-family="Times,serif" font-size="14" text-anchor="middle">:core:ui</text>
        </g>
        <g stroke="#000" class="edge">
            <path fill="none" d="M235.87 39.93c7.07 10.06 15.57 23.31 21.3 36.07 8.75 19.48 15.16 42.76 19.3 60.62"/>
            <path d="m279.86 135.75-1.27 10.52-5.57-9.02z"/>
        </g>
        <g class="node" transform="translate(4 256)">
            <ellipse cx="65.17" cy="-18" fill="none" stroke="#000" rx="65.17" ry="18"/>
            <text x="65.17" y="-12.95" font-family="Times,serif" font-size="14" text-anchor="middle">:core:common</text>
        </g>
        <g stroke="#000" class="edge">
            <path fill="none" d="M161.54 27.47C128.39 33.39 90.11 46.65 69.17 76c-27.93 39.15-18.32 98.4-9.01 133.04"/>
            <path d="m63.43 207.76-.6 10.57-6.13-8.64z"/>
        </g>
        <g stroke="#000" class="edge">
            <path fill="none" d="M191.07 111.41c17.31 10.18 39.64 23.32 57.87 34.04"/>
            <path d="m250.7 142.43 6.84 8.08-10.39-2.05z"/>
        </g>
        <g stroke="#000" class="edge">
            <path fill="none" d="M130.31 110.91c-15.04 8.9-31.78 21.38-42.14 37.09-11.77 17.85-16.41 41.71-18.16 60.23"/>
            <path d="M73.51 208.26 69.33 218l-2.8-10.22z"/>
        </g>
        <g class="node" transform="translate(4 256)">
            <ellipse cx="157.17" cy="-90" fill="none" stroke="#000" rx="63.63" ry="18"/>
            <text x="157.17" y="-84.95" font-family="Times,serif" font-size="14" text-anchor="middle">:core:database</text>
        </g>
        <g stroke="red" stroke-width="2" class="edge">
            <path fill="none" d="M162.68 112.3c-.21 7.29-.46 15.97-.69 24.16"/>
            <path fill="red" d="m165.53 134.97-3.78 9.9-3.22-10.1z"/>
        </g>
        <g stroke="red" stroke-width="2" class="edge">
            <path fill="none" d="M187.43 182.71c16.37 9.79 37.64 22.52 55.47 33.19"/>
            <path fill="red" d="m243.02 211.89 6.79 8.14-10.38-2.13z"/>
        </g>
        <g stroke="#000" class="edge">
            <path fill="none" d="M139.83 183.24c-11.87 9.03-26.86 20.43-39.97 30.41"/>
            <path d="m101.99 216.42-10.07 3.27 5.83-8.84z"/>
        </g>
    </g>
</svg>
