<svg xmlns="http://www.w3.org/2000/svg" width="1036" height="404pt" viewBox="0 0 777.46 404">
    <g class="graph">
        <path fill="#fff" d="M0 404V0h777.46v404z"/>
        <g class="node" transform="translate(4 400)">
            <ellipse cx="546.17" cy="-378" fill="none" stroke="#000" rx="60.56" ry="18"/>
            <text x="546.17" y="-372.95" font-family="Times,serif" font-size="14" text-anchor="middle">:feature:main</text>
        </g>
        <g class="node" transform="translate(4 400)">
            <ellipse cx="491.17" cy="-90" fill="none" stroke="#000" rx="82.06" ry="18"/>
            <text x="491.17" y="-84.95" font-family="Times,serif" font-size="14" text-anchor="middle">:core:designsystem</text>
        </g>
        <g stroke="#000" class="edge">
            <path fill="none" d="M546.81 40.46c-9.21 47.88-34.92 181.59-46.21 240.3"/>
            <path d="m504.1 281.12-5.33 9.16-1.55-10.48z"/>
        </g>
        <g class="node" transform="translate(4 400)">
            <ellipse cx="699.17" cy="-234" fill="none" stroke="#000" rx="70.29" ry="18"/>
            <text x="699.17" y="-228.95" font-family="Times,serif" font-size="14" text-anchor="middle">:feature:account</text>
        </g>
        <g stroke="#000" class="edge">
            <path fill="none" d="M568.02 39.57c26.95 25.01 78.16 72.54 109.22 101.37"/>
            <path d="m679.38 138.14 4.94 9.37-9.71-4.24z"/>
        </g>
        <g class="node" transform="translate(4 400)">
            <ellipse cx="443.17" cy="-306" fill="none" stroke="#000" rx="75.41" ry="18"/>
            <text x="443.17" y="-300.95" font-family="Times,serif" font-size="14" text-anchor="middle">:feature:shopping</text>
        </g>
        <g stroke="red" stroke-width="2" class="edge">
            <path fill="none" d="M526.8 38.88c-13.63 9.27-31.06 21.11-46.13 31.36"/>
            <path fill="red" d="m483.91 72.27-10.24 2.72 6.3-8.51z"/>
        </g>
        <g stroke="#000" class="edge">
            <path fill="none" d="M679.31 183.29c-37.03 25.28-108.43 74.03-150.62 102.83"/>
            <path d="m530.88 288.86-10.24 2.75 6.29-8.53z"/>
        </g>
        <g stroke="#000" class="edge">
            <path fill="none" d="M451.02 112.15c8.25 36.78 27.71 123.56 37.82 168.61"/>
            <path d="m492.2 279.77-1.23 10.52-5.6-8.99z"/>
        </g>
        <g class="node" transform="translate(4 400)">
            <ellipse cx="65.17" cy="-18" fill="none" stroke="#000" rx="65.17" ry="18"/>
            <text x="65.17" y="-12.95" font-family="Times,serif" font-size="14" text-anchor="middle">:core:common</text>
        </g>
        <g stroke="#000" class="edge">
            <path fill="none" d="M380.58 102.73c-74.8 12.14-195.06 42.6-266.41 117.27-34.53 36.13-42.97 96.5-44.79 132.15"/>
            <path d="m72.88 352.27-3.85 9.87-3.15-10.12z"/>
        </g>
        <g class="node" transform="translate(4 400)">
            <ellipse cx="397.17" cy="-18" fill="none" stroke="#000" rx="55.45" ry="18"/>
            <text x="397.17" y="-12.95" font-family="Times,serif" font-size="14" text-anchor="middle">:core:model</text>
        </g>
        <g stroke="#000" class="edge">
            <path fill="none" d="M470.37 111.3c52.82 39.07 173.21 140.53 115.8 216.7-15.13 20.07-76.36 34.85-124.29 43.63"/>
            <path d="m462.59 375.06-10.46-1.7 9.23-5.19z"/>
        </g>
        <g class="node" transform="translate(4 400)">
            <ellipse cx="295.17" cy="-234" fill="none" stroke="#000" rx="47.26" ry="18"/>
            <text x="295.17" y="-228.95" font-family="Times,serif" font-size="14" text-anchor="middle">:core:data</text>
        </g>
        <g stroke="red" stroke-width="2" class="edge">
            <path fill="none" d="M414.32 110.54c-22.45 10.61-52.31 24.74-75.99 35.94"/>
            <path fill="red" d="m341.2 148.99-10.54 1.12 7.55-7.44z"/>
        </g>
        <g stroke="#000" class="edge">
            <path fill="none" d="M340.07 175.32c29.71 7.67 69.55 21.46 98.1 44.68 20.09 16.33 35.35 41.7 45 61.18"/>
            <path d="m486.33 279.67 1.1 10.54-7.43-7.56z"/>
        </g>
        <g stroke="#000" class="edge">
            <path fill="none" d="M256.22 173.88c-32.55 7.01-76.85 20.63-108.05 46.12-42.1 34.39-63.52 96.77-72.89 132.95"/>
            <path d="m78.79 353.36-5.78 8.88-1.02-10.54z"/>
        </g>
        <g class="node" transform="translate(4 400)">
            <ellipse cx="212.17" cy="-90" fill="none" stroke="#000" rx="65.17" ry="18"/>
            <text x="212.17" y="-84.95" font-family="Times,serif" font-size="14" text-anchor="middle">:core:datastore</text>
        </g>
        <g stroke="#000" class="edge">
            <path fill="none" d="M253.45 170.89c-32.49 5.43-73.99 18.36-95.28 49.11-9.11 13.15-6.45 21.36 0 36 5.14 11.66 14.25 21.87 23.75 30.13"/>
            <path d="m183.88 283.21 5.59 9-9.98-3.55z"/>
        </g>
        <g class="node" transform="translate(4 400)">
            <ellipse cx="225.17" cy="-162" fill="none" stroke="#000" rx="62.1" ry="18"/>
            <text x="225.17" y="-156.95" font-family="Times,serif" font-size="14" text-anchor="middle">:core:network</text>
        </g>
        <g stroke="red" stroke-width="2" class="edge">
            <path fill="none" d="m282.93 183.24-29.03 29.03"/>
            <path fill="red" d="m257.49 213.63-9.55 4.6 4.6-9.55z"/>
        </g>
        <g class="node" transform="translate(4 400)">
            <ellipse cx="365.17" cy="-162" fill="none" stroke="#000" rx="60.05" ry="18"/>
            <text x="365.17" y="-156.95" font-family="Times,serif" font-size="14" text-anchor="middle">:core:domain</text>
        </g>
        <g stroke="#000" class="edge">
            <path fill="none" d="m315.41 183.24 29.03 29.03"/>
            <path d="m346.87 209.75 4.6 9.55-9.55-4.6z"/>
        </g>
        <g stroke="#000" class="edge">
            <path fill="none" d="M184.64 326.02c-21.44 10.2-50.04 23.82-73.41 34.95"/>
            <path d="m112.81 364.1-10.54 1.14 7.53-7.46z"/>
        </g>
        <g stroke="#000" class="edge">
            <path fill="none" d="M253.61 325.17c29.37 11.11 70.39 26.63 101.73 38.49"/>
            <path d="m356.45 360.34 8.12 6.81-10.6-.27z"/>
        </g>
        <g class="node" transform="translate(4 400)">
            <ellipse cx="236.17" cy="-18" fill="none" stroke="#000" rx="87.69" ry="18"/>
            <text x="236.17" y="-12.95" font-family="Times,serif" font-size="14" text-anchor="middle">:core:datastore-proto</text>
        </g>
        <g stroke="red" stroke-width="2" class="edge">
            <path fill="none" d="M222.1 328.3c2.56 7.46 5.62 16.38 8.48 24.73"/>
            <path fill="red" d="m233.39 350.44-.07 10.59-6.55-8.32z"/>
        </g>
        <g stroke="#000" class="edge">
            <path fill="none" d="M198.89 254.14c-17.54 9.55-39.5 22.89-56.72 37.86-21.32 18.53-41.35 43.73-55.02 62.59"/>
            <path d="m90.13 356.44-8.64 6.13 2.93-10.18z"/>
        </g>
        <g stroke="#000" class="edge">
            <path fill="none" d="M248.9 255.29c30.46 25.14 89.05 73.52 124 102.37"/>
            <path d="m375.02 354.87 5.48 9.07-9.94-3.67z"/>
        </g>
        <g stroke="red" stroke-width="2" class="edge">
            <path fill="none" d="M225.96 256.3c-1.37 7.38-3.01 16.18-4.54 24.45"/>
            <path fill="red" d="m225.17 279.73-5.27 9.19-1.62-10.47z"/>
        </g>
        <g stroke="#000" class="edge">
            <path fill="none" d="M396.82 254.36c17.44 9.69 40.22 22.35 59.47 33.04"/>
            <path d="m457.91 284.29 7.04 7.92-10.44-1.8z"/>
        </g>
        <g stroke="#000" class="edge">
            <path fill="none" d="M358.85 255.91c-13.31 20.32-38.38 53.92-68.68 72.09-3.54 2.12-97.12 24.17-161.36 39.15"/>
            <path d="m129.99 370.47-10.54-1.14 8.95-5.67z"/>
        </g>
        <g stroke="#000" class="edge">
            <path fill="none" d="M373.09 256.41c5.43 24.09 15.29 67.84 21.76 96.56"/>
            <path d="m398.2 351.89-1.22 10.52-5.61-8.98z"/>
        </g>
        <g stroke="#000" class="edge">
            <path fill="none" d="M337.1 253.67c-22.62 10.35-53.17 24.33-77.9 35.64"/>
            <path d="m260.92 292.38-10.55.97 7.64-7.34z"/>
        </g>
    </g>
</svg>
