<svg xmlns="http://www.w3.org/2000/svg" width="416pt" height="188pt" viewBox="0 0 416.24 188">
    <g class="graph">
        <path fill="#fff" d="M0 188V0h416.24v188z"/>
        <g class="node" transform="translate(4 184)">
            <ellipse cx="204.07" cy="-162" fill="none" stroke="#000" rx="79.5" ry="18"/>
            <text x="204.07" y="-156.95" font-family="Times,serif" font-size="14" text-anchor="middle">:feature:product:ui</text>
        </g>
        <g class="node" transform="translate(4 184)">
            <ellipse cx="39.07" cy="-18" fill="none" stroke="#000" rx="39.07" ry="18"/>
            <text x="39.07" y="-12.95" font-family="Times,serif" font-size="14" text-anchor="middle">:core:ui</text>
        </g>
        <g stroke="#000" class="edge">
            <path fill="none" d="M162.53 37.13C140.29 45.72 114.26 58.46 95.07 76c-18.56 16.95-32.4 42.09-41.12 61.33"/>
            <path d="m57.18 138.68-7.17 7.8.74-10.57z"/>
        </g>
        <g class="node" transform="translate(4 184)">
            <ellipse cx="178.07" cy="-18" fill="none" stroke="#000" rx="82.06" ry="18"/>
            <text x="178.07" y="-12.95" font-family="Times,serif" font-size="14" text-anchor="middle">:core:designsystem</text>
        </g>
        <g stroke="#000" class="edge">
            <path fill="none" d="M219.44 40.1c10.6 18.19 23.41 47.64 13.63 71.9-4.29 10.64-11.84 20.33-19.85 28.44"/>
            <path d="m215.64 142.97-9.7 4.28 4.91-9.39z"/>
        </g>
        <g class="node" transform="translate(4 184)">
            <ellipse cx="343.07" cy="-18" fill="none" stroke="#000" rx="65.17" ry="18"/>
            <text x="343.07" y="-12.95" font-family="Times,serif" font-size="14" text-anchor="middle">:core:common</text>
        </g>
        <g stroke="#000" class="edge">
            <path fill="none" d="M224.56 39.85c24.35 24.87 70.07 71.58 98.24 100.36"/>
            <path d="m325.05 137.5 4.49 9.59-9.5-4.69z"/>
        </g>
        <g class="node" transform="translate(4 184)">
            <ellipse cx="160.07" cy="-90" fill="none" stroke="#000" rx="60.05" ry="18"/>
            <text x="160.07" y="-84.95" font-family="Times,serif" font-size="14" text-anchor="middle">:core:domain</text>
        </g>
        <g stroke="red" stroke-width="2" class="edge">
            <path fill="none" d="M197.19 40.3c-4.9 7.8-10.8 17.19-16.26 25.87"/>
            <path fill="red" d="m184.72 66.73-8.29 6.6L178.79 63z"/>
        </g>
        <g stroke="#000" class="edge">
            <path fill="none" d="M137.21 110.54c-17.94 10.37-41.67 24.1-60.81 35.18"/>
            <path d="m78.3 148.66-10.41 1.98 6.9-8.04z"/>
        </g>
        <g stroke="#000" class="edge">
            <path fill="none" d="M168.52 112.3c1.89 7.38 4.16 16.18 6.28 24.45"/>
            <path d="m178.19 135.87-.9 10.56-5.88-8.81z"/>
        </g>
        <g stroke="red" stroke-width="2" class="edge">
            <path fill="none" d="M200.22 108.83c28.42 10.87 68.25 26.11 99.26 37.97"/>
            <path fill="red" d="m299.13 142.92 8.09 6.84-10.59-.31z"/>
        </g>
    </g>
</svg>
