<svg xmlns="http://www.w3.org/2000/svg" width="439pt" height="260pt" viewBox="0 0 438.88 260">
    <g class="graph">
        <path fill="#fff" d="M0 260V0h438.88v260z"/>
        <g class="node" transform="translate(4 256)">
            <ellipse cx="120.45" cy="-234" fill="none" stroke="#000" rx="120.45" ry="18"/>
            <text x="120.45" y="-228.95" font-family="Times,serif" font-size="14" text-anchor="middle">:feature:transaction-history:ui</text>
        </g>
        <g class="node" transform="translate(4 256)">
            <ellipse cx="149.45" cy="-90" fill="none" stroke="#000" rx="39.07" ry="18"/>
            <text x="149.45" y="-84.95" font-family="Times,serif" font-size="14" text-anchor="middle">:core:ui</text>
        </g>
        <g stroke="#000" class="edge">
            <path fill="none" d="M128 40.41c4.92 24.09 13.85 67.84 19.72 96.56"/>
            <path d="m151.08 135.91-1.43 10.5-5.43-9.1z"/>
        </g>
        <g class="node" transform="translate(4 256)">
            <ellipse cx="192.45" cy="-18" fill="none" stroke="#000" rx="65.17" ry="18"/>
            <text x="192.45" y="-12.95" font-family="Times,serif" font-size="14" text-anchor="middle">:core:common</text>
        </g>
        <g stroke="#000" class="edge">
            <path fill="none" d="M115.99 40.34C102.17 71.41 78.8 137.64 105.45 184c8.82 15.34 23.98 26.66 39.42 34.8"/>
            <path d="m146.16 215.54 7.47 7.51-10.52-1.21z"/>
        </g>
        <g class="node" transform="translate(4 256)">
            <ellipse cx="289.45" cy="-162" fill="none" stroke="#000" rx="141.43" ry="18"/>
            <text x="289.45" y="-156.95" font-family="Times,serif" font-size="14" text-anchor="middle">:feature:transaction-history:domain</text>
        </g>
        <g stroke="red" stroke-width="2" class="edge">
            <path fill="none" d="M164.07 39.41c23.47 9.73 53.46 22.15 78.65 32.58"/>
            <path fill="red" d="m242.5 68.11 7.89 7.06-10.57-.59z"/>
        </g>
        <g stroke="#000" class="edge">
            <path fill="none" d="M259.56 111.95c-21.29 10.64-48.7 24.34-70.33 35.16"/>
            <path d="m190.99 150.14-10.51 1.34 7.38-7.6z"/>
        </g>
        <g stroke="#000" class="edge">
            <path fill="none" d="M272.75 112.19c-10.84 9.73-23.81 22.58-33.3 35.81-13.59 18.94-24.86 42.83-32.45 61.09"/>
            <path d="m210.3 210.26-6.98 7.97.48-10.58z"/>
        </g>
        <g class="node" transform="translate(4 256)">
            <ellipse cx="308.45" cy="-90" fill="none" stroke="#000" rx="63.63" ry="18"/>
            <text x="308.45" y="-84.95" font-family="Times,serif" font-size="14" text-anchor="middle">:core:database</text>
        </g>
        <g stroke="red" stroke-width="2" class="edge">
            <path fill="none" d="M298.14 112.3c2.03 7.46 4.45 16.38 6.71 24.73"/>
            <path fill="red" d="m307.77 134.41-.76 10.56-6-8.73z"/>
        </g>
        <g stroke="#000" class="edge">
            <path fill="none" d="M286.41 182.71c-15.86 9.57-36.35 21.94-53.77 32.45"/>
            <path d="m234.46 218.15-10.37 2.17 6.75-8.16z"/>
        </g>
        <g class="node" transform="translate(4 256)">
            <ellipse cx="331.45" cy="-18" fill="none" stroke="#000" rx="55.45" ry="18"/>
            <text x="331.45" y="-12.95" font-family="Times,serif" font-size="14" text-anchor="middle">:core:model</text>
        </g>
        <g stroke="red" stroke-width="2" class="edge">
            <path fill="none" d="M318.13 184.3c2.45 7.46 5.38 16.38 8.13 24.73"/>
            <path fill="red" d="m329.08 206.43-.2 10.59-6.45-8.41z"/>
        </g>
    </g>
</svg>
