<svg xmlns="http://www.w3.org/2000/svg" width="292pt" height="188pt" viewBox="0 0 292.24 188">
    <g class="graph">
        <path fill="#fff" d="M0 188V0h292.24v188z"/>
        <g class="node" transform="translate(4 184)">
            <ellipse cx="129.07" cy="-162" fill="none" stroke="#000" rx="70.29" ry="18"/>
            <text x="129.07" y="-156.95" font-family="Times,serif" font-size="14" text-anchor="middle">:feature:login:ui</text>
        </g>
        <g class="node" transform="translate(4 184)">
            <ellipse cx="39.07" cy="-18" fill="none" stroke="#000" rx="39.07" ry="18"/>
            <text x="39.07" y="-12.95" font-family="Times,serif" font-size="14" text-anchor="middle">:core:ui</text>
        </g>
        <g stroke="#000" class="edge">
            <path fill="none" d="M86.34 35.8C66.27 43.87 44.77 56.55 33.07 76c-11.02 18.31-7.32 42.62-1.54 61.21"/>
            <path d="M34.79 135.91v10.6l-6.61-8.28z"/>
        </g>
        <g class="node" transform="translate(4 184)">
            <ellipse cx="219.07" cy="-18" fill="none" stroke="#000" rx="65.17" ry="18"/>
            <text x="219.07" y="-12.95" font-family="Times,serif" font-size="14" text-anchor="middle">:core:common</text>
        </g>
        <g stroke="#000" class="edge">
            <path fill="none" d="M179.8 35.8c20.07 8.07 41.57 20.75 53.27 40.2 11.02 18.31 7.32 42.62 1.53 61.21"/>
            <path d="m237.95 138.23-6.61 8.28.01-10.6z"/>
        </g>
        <g class="node" transform="translate(4 184)">
            <ellipse cx="129.07" cy="-90" fill="none" stroke="#000" rx="91.27" ry="18"/>
            <text x="129.07" y="-84.95" font-family="Times,serif" font-size="14" text-anchor="middle">:feature:login:domain</text>
        </g>
        <g stroke="red" stroke-width="2" class="edge">
            <path fill="none" d="M133.07 40.3v24.16"/>
            <path fill="red" d="m136.57 62.87-3.5 10-3.5-10z"/>
        </g>
        <g stroke="red" stroke-width="2" class="edge">
            <path fill="none" d="M111.28 111.95c-12.05 9.37-27.17 21.13-40.11 31.19"/>
            <path fill="red" d="m74.64 144.88-10.04 3.37 5.74-8.9z"/>
        </g>
        <g stroke="#000" class="edge">
            <path fill="none" d="M154.85 111.95c11.56 8.98 25.92 20.15 38.49 29.93"/>
            <path d="m195.16 138.86 5.75 8.9-10.05-3.37z"/>
        </g>
    </g>
</svg>
