<svg xmlns="http://www.w3.org/2000/svg" width="580pt" height="188pt" viewBox="0 0 580.23 188">
    <g class="graph">
        <path fill="#fff" d="M0 188V0h580.23v188z"/>
        <g class="node" transform="translate(4 184)">
            <ellipse cx="192.06" cy="-162" fill="none" stroke="#000" rx="64.66" ry="18"/>
            <text x="192.06" y="-156.95" font-family="Times,serif" font-size="14" text-anchor="middle">:feature:splash</text>
        </g>
        <g class="node" transform="translate(4 184)">
            <ellipse cx="82.06" cy="-90" fill="none" stroke="#000" rx="82.06" ry="18"/>
            <text x="82.06" y="-84.95" font-family="Times,serif" font-size="14" text-anchor="middle">:core:designsystem</text>
        </g>
        <g stroke="#000" class="edge">
            <path fill="none" d="M171.1 38.88c-14.59 9.29-33.26 21.17-49.38 31.43"/>
            <path d="m123.66 73.22-10.31 2.42 6.55-8.33z"/>
        </g>
        <g class="node" transform="translate(4 184)">
            <ellipse cx="175.06" cy="-18" fill="none" stroke="#000" rx="55.45" ry="18"/>
            <text x="175.06" y="-12.95" font-family="Times,serif" font-size="14" text-anchor="middle">:core:model</text>
        </g>
        <g stroke="#000" class="edge">
            <path fill="none" d="M193.98 40.41c-2.88 23.98-8.08 67.45-11.52 96.17"/>
            <path d="m185.95 136.87-4.66 9.52-2.29-10.35z"/>
        </g>
        <g class="node" transform="translate(4 184)">
            <ellipse cx="319.06" cy="-90" fill="none" stroke="#000" rx="65.17" ry="18"/>
            <text x="319.06" y="-84.95" font-family="Times,serif" font-size="14" text-anchor="middle">:core:datastore</text>
        </g>
        <g stroke="red" stroke-width="2" class="edge">
            <path fill="none" d="M224.25 38.54c17.92 9.87 41.34 22.79 60.89 33.56"/>
            <path fill="red" d="m285.23 68.15 7.07 7.9-10.45-1.77z"/>
        </g>
        <g stroke="#000" class="edge">
            <path fill="none" d="M291.81 110.19c-21.37 10.39-49.89 24.26-72.9 35.44"/>
            <path d="m220.65 148.67-10.52 1.23 7.46-7.52z"/>
        </g>
        <g class="node" transform="translate(4 184)">
            <ellipse cx="336.06" cy="-18" fill="none" stroke="#000" rx="87.69" ry="18"/>
            <text x="336.06" y="-12.95" font-family="Times,serif" font-size="14" text-anchor="middle">:core:datastore-proto</text>
        </g>
        <g stroke="red" stroke-width="2" class="edge">
            <path fill="none" d="M327.26 112.3c1.79 7.38 3.93 16.18 5.94 24.45"/>
            <path fill="red" d="m336.23 134.41-1.04 10.54-5.76-8.89z"/>
        </g>
        <g class="node" transform="translate(4 184)">
            <ellipse cx="507.06" cy="-18" fill="none" stroke="#000" rx="65.17" ry="18"/>
            <text x="507.06" y="-12.95" font-family="Times,serif" font-size="14" text-anchor="middle">:core:common</text>
        </g>
        <g stroke="#000" class="edge">
            <path fill="none" d="M360.65 109c29.37 10.93 70.38 26.2 102.17 38.04"/>
            <path d="m463.64 143.61 8.15 6.77-10.59-.21z"/>
        </g>
    </g>
</svg>
