<svg xmlns="http://www.w3.org/2000/svg" width="416pt" height="116pt" viewBox="0 0 416.23 116">
    <g class="graph">
        <path fill="#fff" d="M0 116V0h416.23v116z"/>
        <g class="node" transform="translate(4 112)">
            <ellipse cx="187.17" cy="-90" fill="none" stroke="#000" rx="60.05" ry="18"/>
            <text x="187.17" y="-84.95" font-family="Times,serif" font-size="14" text-anchor="middle">:core:domain</text>
        </g>
        <g class="node" transform="translate(4 112)">
            <ellipse cx="65.17" cy="-18" fill="none" stroke="#000" rx="65.17" ry="18"/>
            <text x="65.17" y="-12.95" font-family="Times,serif" font-size="14" text-anchor="middle">:core:common</text>
        </g>
        <g stroke="red" stroke-width="2" class="edge">
            <path fill="none" d="M164.09 38.54c-16.94 9.71-38.99 22.37-57.58 33.04"/>
            <path fill="red" d="m109.63 73.82-10.41 1.94 6.93-8.01z"/>
        </g>
        <g class="node" transform="translate(4 112)">
            <ellipse cx="187.17" cy="-18" fill="none" stroke="#000" rx="39.07" ry="18"/>
            <text x="187.17" y="-12.95" font-family="Times,serif" font-size="14" text-anchor="middle">:core:ui</text>
        </g>
        <g stroke="#000" class="edge">
            <path fill="none" d="M191.17 40.3v24.16"/>
            <path d="m194.67 64.38-3.5 10-3.5-10z"/>
        </g>
        <g class="node" transform="translate(4 112)">
            <ellipse cx="326.17" cy="-18" fill="none" stroke="#000" rx="82.06" ry="18"/>
            <text x="326.17" y="-12.95" font-family="Times,serif" font-size="14" text-anchor="middle">:core:designsystem</text>
        </g>
        <g stroke="#000" class="edge">
            <path fill="none" d="M220.99 38.02c19.61 9.87 45.55 22.93 67.22 33.85"/>
            <path d="m289.76 68.73 7.36 7.62-10.51-1.37z"/>
        </g>
    </g>
</svg>
