<svg xmlns="http://www.w3.org/2000/svg" width="828" height="260pt" viewBox="0 0 621.05 260">
    <g class="graph">
        <path fill="#fff" d="M0 260V0h621.05v260z"/>
        <g class="node" transform="translate(4 256)">
            <ellipse cx="225.36" cy="-234" fill="none" stroke="#000" rx="78.48" ry="18"/>
            <text x="225.36" y="-228.95" font-family="Times,serif" font-size="14" text-anchor="middle">:feature:login:data</text>
        </g>
        <g class="node" transform="translate(4 256)">
            <ellipse cx="53.36" cy="-90" fill="none" stroke="#000" rx="39.07" ry="18"/>
            <text x="53.36" y="-84.95" font-family="Times,serif" font-size="14" text-anchor="middle">:core:ui</text>
        </g>
        <g stroke="#000" class="edge">
            <path fill="none" d="M159.4 30.57C102.5 38.33 28.74 52.64 10.36 76c-16.1 20.46 2.45 47.24 20.78 66.06"/>
            <path d="m33.33 139.31 4.73 9.48-9.61-4.46z"/>
        </g>
        <g class="node" transform="translate(4 256)">
            <ellipse cx="225.36" cy="-18" fill="none" stroke="#000" rx="65.17" ry="18"/>
            <text x="225.36" y="-12.95" font-family="Times,serif" font-size="14" text-anchor="middle">:core:common</text>
        </g>
        <g stroke="#000" class="edge">
            <path fill="none" d="M229.36 40.15v168.32"/>
            <path d="m232.86 208.25-3.5 10-3.5-10z"/>
        </g>
        <g class="node" transform="translate(4 256)">
            <ellipse cx="106.36" cy="-162" fill="none" stroke="#000" rx="91.27" ry="18"/>
            <text x="106.36" y="-156.95" font-family="Times,serif" font-size="14" text-anchor="middle">:feature:login:domain</text>
        </g>
        <g stroke="#000" class="edge">
            <path fill="none" d="M201.76 39.24c-15.96 9.38-36.26 21.32-53.67 31.57"/>
            <path d="m149.92 73.79-10.39 2.05 6.84-8.08z"/>
        </g>
        <g class="node" transform="translate(4 256)">
            <ellipse cx="315.36" cy="-162" fill="none" stroke="#000" rx="62.1" ry="18"/>
            <text x="315.36" y="-156.95" font-family="Times,serif" font-size="14" text-anchor="middle">:core:network</text>
        </g>
        <g stroke="red" stroke-width="2" class="edge">
            <path fill="none" d="M250.69 39.59c11.63 9.04 26.2 20.38 38.93 30.28"/>
            <path fill="red" d="m290.36 66.01 5.74 8.9-10.04-3.37z"/>
        </g>
        <g class="node" transform="translate(4 256)">
            <ellipse cx="405.36" cy="-90" fill="none" stroke="#000" rx="65.17" ry="18"/>
            <text x="405.36" y="-84.95" font-family="Times,serif" font-size="14" text-anchor="middle">:core:datastore</text>
        </g>
        <g stroke="#000" class="edge">
            <path fill="none" d="M299.87 30.25c31.88 6.86 67.49 20.13 90.49 45.75 14.61 16.28 18.98 40.99 19.9 60.24"/>
            <path d="m413.76 136.11-3.33 10.06-3.67-9.94z"/>
        </g>
        <g stroke="#000" class="edge">
            <path fill="none" d="M97.26 112.3c-6.28 8.3-13.92 18.39-20.83 27.51"/>
            <path d="m79.32 141.79-8.82 5.86 3.24-10.09z"/>
        </g>
        <g stroke="#000" class="edge">
            <path fill="none" d="M124.71 112.13c20.75 24.76 59.27 70.73 83.35 99.45"/>
            <path d="m210.61 209.18 3.74 9.91-9.1-5.41z"/>
        </g>
        <g stroke="#000" class="edge">
            <path fill="none" d="M308.5 112.13c-15.47 24.41-44.01 69.44-62.26 98.23"/>
            <path d="m249.37 211.96-8.31 6.57 2.4-10.32z"/>
        </g>
        <g stroke="red" stroke-width="2" class="edge">
            <path fill="none" d="M340.23 111.24c11.62 9.03 26.28 20.43 39.11 30.41"/>
            <path fill="red" d="m380.15 137.85 5.75 8.9-10.05-3.37z"/>
        </g>
        <g class="node" transform="translate(4 256)">
            <ellipse cx="364.36" cy="-18" fill="none" stroke="#000" rx="55.45" ry="18"/>
            <text x="364.36" y="-12.95" font-family="Times,serif" font-size="14" text-anchor="middle">:core:model</text>
        </g>
        <g stroke="#000" class="edge">
            <path fill="none" d="M320.52 112.25c1.67 18.32 5.65 47.87 14.84 71.75 3.54 9.21 8.74 18.56 13.96 26.8"/>
            <path d="m352.12 208.69 2.64 10.26-8.47-6.37z"/>
        </g>
        <g stroke="#000" class="edge">
            <path fill="none" d="M372.93 181.17c-27.72 10.78-66.1 25.7-96.21 37.41"/>
            <path d="m278.04 221.82-10.59.37 8.05-6.89z"/>
        </g>
        <g stroke="#000" class="edge">
            <path fill="none" d="M399.43 183.95c-4.63 7.91-10.26 17.51-15.44 26.36"/>
            <path d="m387.03 212.05-8.07 6.85 2.03-10.39z"/>
        </g>
        <g class="node" transform="translate(4 256)">
            <ellipse cx="525.36" cy="-18" fill="none" stroke="#000" rx="87.69" ry="18"/>
            <text x="525.36" y="-12.95" font-family="Times,serif" font-size="14" text-anchor="middle">:core:datastore-proto</text>
        </g>
        <g stroke="red" stroke-width="2" class="edge">
            <path fill="none" d="M436.29 182.71c16.25 9.48 37.2 21.7 55.12 32.15"/>
            <path fill="red" d="m491.78 211.03 6.87 8.06-10.4-2.02z"/>
        </g>
    </g>
</svg>
